<?xml version="1.0" encoding="UTF-8"?>
<!DOCTYPE svg PUBLIC "-//W3C//DTD SVG 1.1//EN" "http://www.w3.org/Graphics/SVG/1.1/DTD/svg11.dtd">
<!-- Creator: CorelDRAW -->
<svg xmlns="http://www.w3.org/2000/svg" xml:space="preserve" width="210mm" height="297mm" style="shape-rendering:geometricPrecision; text-rendering:geometricPrecision; image-rendering:optimizeQuality; fill-rule:evenodd; clip-rule:evenodd"
viewBox="0 0 210 297"
 xmlns:xlink="http://www.w3.org/1999/xlink"
 version="1.1">
 <defs>
  <style type="text/css">
   <![CDATA[
    .str0 {stroke:#0093DD;stroke-width:0.0762}
    .fil1 {fill:none}
    .fil0 {fill:#0091CF}
   ]]>
  </style>
    <clipPath id="id0">
     <path d="M180.383 234.396l7.0633 4.0361 7.0633 4.0361 0 8.0724 0 8.0722 -7.0633 4.0362 -7.0633 4.0362 -7.0632 -4.0362 -7.0633 -4.0362 0 -8.0722 0 -8.0724 7.0633 -4.0361 7.0632 -4.0361z"/>
    </clipPath>
    <clipPath id="id1">
     <path d="M149.793 132.149l7.0633 4.0361 7.0633 4.0361 0 8.0724 0 8.0722 -7.0633 4.0362 -7.0633 4.0362 -7.0632 -4.0362 -7.0633 -4.0362 0 -8.0722 0 -8.0724 7.0633 -4.0361 7.0632 -4.0361z"/>
    </clipPath>
    <clipPath id="id2">
     <path d="M195.082 157.604l7.0632 4.0361 7.0633 4.0362 0 8.0723 0 8.0723 -7.0633 4.0362 -7.0632 4.0361 -7.0633 -4.0361 -7.0632 -4.0362 0 -8.0723 0 -8.0723 7.0632 -4.0362 7.0633 -4.0361z"/>
    </clipPath>
    <clipPath id="id3">
     <path d="M164.732 157.598l7.0633 4.0362 7.0632 4.0361 0 8.0723 0 8.0723 -7.0632 4.0362 -7.0633 4.0361 -7.0633 -4.0361 -7.0632 -4.0362 0 -8.0723 0 -8.0723 7.0632 -4.0361 7.0633 -4.0362z"/>
    </clipPath>
    <clipPath id="id4">
     <path d="M179.757 131.702l7.0633 4.0361 7.0633 4.0362 0 8.0723 0 8.0723 -7.0633 4.0362 -7.0633 4.0361 -7.0632 -4.0361 -7.0633 -4.0362 0 -8.0723 0 -8.0723 7.0633 -4.0362 7.0632 -4.0361z"/>
    </clipPath>
    <clipPath id="id5">
     <path d="M179.955 183.222l7.0633 4.0361 7.0632 4.0362 0 8.0723 0 8.0723 -7.0632 4.0362 -7.0633 4.0361 -7.0632 -4.0361 -7.0633 -4.0362 0 -8.0723 0 -8.0723 7.0633 -4.0362 7.0632 -4.0361z"/>
    </clipPath>
    <clipPath id="id6">
     <path d="M135.028 157.831l7.0633 4.0362 7.0632 4.0361 0 8.0723 0 8.0723 -7.0632 4.0362 -7.0633 4.0361 -7.0632 -4.0361 -7.0633 -4.0362 0 -8.0723 0 -8.0723 7.0633 -4.0361 7.0632 -4.0362z"/>
    </clipPath>
    <clipPath id="id7">
     <path d="M149.929 183.092l7.0633 4.0361 7.0633 4.0361 0 8.0724 0 8.0722 -7.0633 4.0363 -7.0633 4.0361 -7.0632 -4.0361 -7.0633 -4.0363 0 -8.0722 0 -8.0724 7.0633 -4.0361 7.0632 -4.0361z"/>
    </clipPath>
    <clipPath id="id8">
     <path d="M164.65 106.196l7.0633 4.0361 7.0633 4.0361 0 8.0724 0 8.0722 -7.0633 4.0362 -7.0633 4.0362 -7.0632 -4.0362 -7.0633 -4.0362 0 -8.0722 0 -8.0724 7.0633 -4.0361 7.0632 -4.0361z"/>
    </clipPath>
    <clipPath id="id9">
     <path d="M165.207 208.719l7.0633 4.0361 7.0633 4.0361 0 8.0724 0 8.0722 -7.0633 4.0362 -7.0633 4.0362 -7.0632 -4.0362 -7.0633 -4.0362 0 -8.0722 0 -8.0724 7.0633 -4.0361 7.0632 -4.0361z"/>
    </clipPath>
    <clipPath id="id10">
     <path d="M179.757 80.9017l7.0633 4.0361 7.0633 4.0362 0 8.0723 0 8.0723 -7.0633 4.0362 -7.0633 4.0361 -7.0632 -4.0361 -7.0633 -4.0362 0 -8.0723 0 -8.0723 7.0633 -4.0362 7.0632 -4.0361z"/>
    </clipPath>
    <clipPath id="id11">
     <path d="M195.209 208.58l7.0633 4.0361 7.0633 4.0362 0 8.0723 0 8.0723 -7.0633 4.0362 -7.0633 4.0361 -7.0632 -4.0361 -7.0633 -4.0362 0 -8.0723 0 -8.0723 7.0633 -4.0362 7.0632 -4.0361z"/>
    </clipPath>
    <clipPath id="id12">
     <path d="M194.997 54.9437l7.0633 4.0361 7.0633 4.0362 0 8.0723 0 8.0723 -7.0633 4.0362 -7.0633 4.0361 -7.0632 -4.0361 -7.0633 -4.0362 0 -8.0723 0 -8.0723 7.0633 -4.0362 7.0632 -4.0361z"/>
    </clipPath>
    <clipPath id="id13">
     <path d="M195.025 106.168l7.0632 4.0361 7.0633 4.0362 0 8.0723 0 8.0723 -7.0633 4.0362 -7.0632 4.0361 -7.0633 -4.0361 -7.0632 -4.0362 0 -8.0723 0 -8.0723 7.0632 -4.0362 7.0633 -4.0361z"/>
    </clipPath>
    <clipPath id="id14">
     <path d="M210.324 234.195l4.676 2.672 0 26.9452 -4.676 2.672 -7.0632 -4.0361 -7.0633 -4.0362 0 -8.0723 0 -8.0723 7.0633 -4.0362 7.0632 -4.0361z"/>
    </clipPath>
    <clipPath id="id15">
     <path d="M210.237 131.702l4.7631 2.7217 0 26.8458 -4.7631 2.7217 -7.0632 -4.0361 -7.0633 -4.0362 0 -8.0723 0 -8.0723 7.0633 -4.0362 7.0632 -4.0361z"/>
    </clipPath>
    <clipPath id="id16">
     <path d="M210.1 183.013l4.9003 2.8001 0 26.689 -4.9003 2.8001 -7.0632 -4.0361 -7.0633 -4.0362 0 -8.0723 0 -8.0723 7.0633 -4.0362 7.0632 -4.0361z"/>
    </clipPath>
    <clipPath id="id17">
     <path d="M210.237 80.9017l4.7631 2.7217 0 26.8458 -4.7631 2.7217 -7.0632 -4.0361 -7.0633 -4.0362 0 -8.0723 0 -8.0723 7.0633 -4.0362 7.0632 -4.0361z"/>
    </clipPath>
 </defs>
 <g id="Layer_x0020_1">
  <metadata id="CorelCorpID_0Corel-Layer"/>
  <g id="_174472464">
   <g>
   </g>
   <g style="clip-path:url(#id0)">
    <g id="_176366512">
     <g>
      <g>
       <g id="Layer_20_51_">
        <g>
         <polygon id="_176369008" class="fil0" points="177.027,253.674 179.567,253.674 179.567,254.261 177.027,254.261 177.027,254.744 185.018,254.744 185.018,254.261 182.055,254.261 182.055,253.674 185.351,253.674 185.351,252.336 177.027,252.336 "/>
         <polygon id="_176368768" class="fil0" points="174.814,245.621 186.928,245.621 186.928,250.464 187.966,250.464 187.966,244.583 173.775,244.583 173.775,247.826 174.814,247.826 "/>
         <path id="_176368600" class="fil0" d="M171.273 256.281l5.4189 0 0 -8.1289 -5.4189 0 0 8.1289zm2.8238 -0.4083c-0.144,0 -0.2612,-0.1164 -0.2612,-0.2608 0,-0.144 0.1172,-0.2608 0.2612,-0.2608 0.1444,0 0.2608,0.1164 0.2608,0.2608 0,0.1444 -0.1164,0.2608 -0.2608,0.2608zm-2.0402 -6.9371l3.8525 0 -0.0004 5.9969 -3.8521 0 0 -5.9969z"/>
         <path id="_176369176" class="fil0" d="M185.718 250.776l0 5.7227 3.7749 0 0 -5.7227 -3.7749 0zm1.9641 0.2366c0.0452,0 0.0821,0.0377 0.0821,0.0825 0,0.0451 -0.0369,0.0828 -0.0821,0.0828 -0.0459,0 -0.0832,-0.0377 -0.0832,-0.0828 0,-0.0452 0.037,-0.0825 0.0832,-0.0825zm-0.4903 0.2746l0.9788 0 0 0.0791 -0.9788 0 0 -0.0791zm0.4575 4.9645c-0.1086,0 -0.1955,-0.0881 -0.1955,-0.1959 0,-0.1082 0.0869,-0.1955 0.1955,-0.1955 0.1078,0 0.1959,0.0873 0.1959,0.1955 0,0.1074 -0.0881,0.1959 -0.1959,0.1959zm1.2977 -0.6739c-0.8835,0.0048 -2.2447,0.0082 -2.6824,0.0045l0 -3.9346 2.6824 -0.0004 0 3.9305z"/>
        </g>
       </g>
      </g>
      <g>
      </g>
      <g>
      </g>
      <g>
      </g>
      <g>
      </g>
      <g>
      </g>
      <g>
      </g>
      <g>
      </g>
      <g>
      </g>
      <g>
      </g>
      <g>
      </g>
      <g>
      </g>
      <g>
      </g>
      <g>
      </g>
      <g>
      </g>
      <g>
      </g>
     </g>
    </g>
   </g>
   <polygon class="fil1 str0" points="180.383,234.396 187.446,238.432 194.51,242.469 194.51,250.541 194.51,258.613 187.446,262.649 180.383,266.685 173.32,262.649 166.257,258.613 166.257,250.541 166.257,242.469 173.32,238.432 "/>
   <g>
   </g>
   <g style="clip-path:url(#id1)">
    <g>
     <g id="_175590352">
      <path id="_175583872" class="fil0" d="M155.866 140.835l-12.1461 0c-0.291,0 -0.5093,0.2462 -0.4836,0.5371l1.1094 12.4322c0.0257,0.2907 0.2771,0.5949 0.5591,0.6735l4.3735 1.2148c0.2816,0.0781 0.7419,0.0786 1.024,0.0011l4.3788 -1.2132c0.2821,-0.0783 0.5335,-0.3798 0.5592,-0.671l1.1099 -12.4374c0.0256,-0.2909 -0.1917,-0.5371 -0.4842,-0.5371zm-2.1064 4.4877c-0.0002,0.0019 -0.0017,0.0034 -0.0036,0.0037 -0.0019,0.0003 -0.0037,-0.0007 -0.0045,-0.0025l-3.4265 1.4042c-0.0488,0.02 -0.0766,0.0717 -0.0665,0.1235 0.0102,0.0518 0.0556,0.0891 0.1084,0.0891l2.6652 0c0.1418,0 0.2768,0.0602 0.3716,0.1656 0.0948,0.1054 0.1404,0.2462 0.1253,0.3871l-0.4164 3.9066c-0.0204,0.1916 -0.1492,0.3544 -0.3311,0.4184l-2.8289 0.9954c-0.1065,0.0376 -0.2227,0.0378 -0.3295,0.0008l-2.8157 -0.9753c-0.183,-0.0634 -0.3128,-0.2267 -0.3334,-0.4192l-0.1888 -1.7692c-0.0099,-0.0929 0.0201,-0.1856 0.0826,-0.2551 0.0624,-0.0694 0.1514,-0.1091 0.2448,-0.1091l0.7836 0c0.1683,0 0.3095,0.127 0.3273,0.2944l0.1159 1.0874 1.9496 0.6777 1.9585 -0.6838 0.2396 -2.2554 -5.5377 0c-0.1678,0 -0.3088,-0.1263 -0.3272,-0.2932l-0.1055 -0.9559c-0.016,-0.1458 0.0662,-0.2846 0.2018,-0.3405l3.5441 -1.4612c0.0402,-0.0165 0.0631,-0.0592 0.0546,-0.1018 -0.0084,-0.0426 -0.0458,-0.0734 -0.0892,-0.0734l-3.7315 0c-0.1123,0 -0.2066,-0.0848 -0.2183,-0.1965l-0.1079 -1.0274c-0.0065,-0.0618 0.0135,-0.1235 0.0552,-0.1697 0.0416,-0.0462 0.1009,-0.0726 0.163,-0.0726l7.8078 -0.0001c0.0625,0 0.1221,0.0267 0.1637,0.0733 0.0417,0.0467 0.0614,0.1089 0.0544,0.171l-0.1548 1.3637z"/>
      <g>
      </g>
      <g>
      </g>
      <g>
      </g>
      <g>
      </g>
      <g>
      </g>
      <g>
      </g>
      <g>
      </g>
      <g>
      </g>
      <g>
      </g>
      <g>
      </g>
      <g>
      </g>
      <g>
      </g>
      <g>
      </g>
      <g>
      </g>
      <g>
      </g>
     </g>
    </g>
   </g>
   <polygon class="fil1 str0" points="149.793,132.149 156.857,136.185 163.92,140.221 163.92,148.293 163.92,156.366 156.857,160.402 149.793,164.438 142.73,160.402 135.667,156.366 135.667,148.293 135.667,140.221 142.73,136.185 "/>
   <g>
   </g>
   <g style="clip-path:url(#id2)">
    <g>
     <g>
      <g id="XMLID_7_">
       <path id="XMLID_8_" class="fil0" d="M194.984 167.467c-0.9222,0.6485 -1.9673,1.3837 -2.5273,2.5999 -0.9727,2.1217 1.9903,4.4362 2.1169,4.5337 0.0295,0.0227 0.0647,0.034 0.0998,0.034 0.0373,0 0.0747,-0.0128 0.105,-0.0382 0.0589,-0.0492 0.0756,-0.1327 0.0402,-0.2008 -0.0107,-0.0207 -1.0743,-2.0865 -1.0347,-3.5686 0.014,-0.5162 0.7363,-1.1017 1.5011,-1.7217 0.7005,-0.5678 1.4945,-1.2114 1.959,-1.9643 1.0199,-1.6572 -0.1136,-3.2868 -0.1252,-3.303 -0.045,-0.0632 -0.1281,-0.0862 -0.1992,-0.055 -0.071,0.0313 -0.1103,0.1081 -0.0941,0.184 0.0023,0.0107 0.2228,1.0883 -0.3906,2.1985 -0.2528,0.4588 -0.808,0.8493 -1.4509,1.3015z"/>
       <path id="XMLID_9_" class="fil0" d="M198.869 168.198c0.065,-0.049 0.0841,-0.1384 0.0447,-0.2097 -0.0394,-0.0713 -0.1252,-0.1028 -0.2013,-0.0739 -0.1567,0.0596 -3.8362,1.4778 -3.8362,3.1916 0,1.1812 0.5046,1.8053 0.8731,2.2611 0.1445,0.1787 0.2693,0.333 0.3104,0.4648 0.1158,0.3798 -0.1585,1.0662 -0.2737,1.2986 -0.0333,0.0669 -0.017,0.1478 0.0395,0.1966 0.0306,0.0264 0.0687,0.0398 0.1069,0.0398 0.0326,0 0.0652,-0.0097 0.0934,-0.0294 0.0633,-0.044 1.5462,-1.0924 1.2802,-2.3556 -0.099,-0.4801 -0.335,-0.831 -0.5432,-1.1405 -0.3225,-0.4796 -0.5555,-0.8261 -0.2021,-1.4659 0.4142,-0.7462 2.2894,-2.1633 2.3083,-2.1775z"/>
       <path id="XMLID_10_" class="fil0" d="M189.291 175.394c-0.0631,0.1888 -0.0333,0.3763 0.086,0.542 0.3989,0.5537 1.8118,0.8587 3.9785,0.8587 0.0001,0 0.0002,0 0.0003,0 0.2936,0 0.6035,-0.0058 0.921,-0.0171 3.4642,-0.1241 4.7491,-1.2033 4.8021,-1.2492 0.0578,-0.05 0.0733,-0.1333 0.0374,-0.2007 -0.036,-0.0673 -0.1134,-0.1011 -0.1875,-0.0808 -1.22,0.3332 -3.4982,0.4514 -5.0784,0.4514 -1.7682,0 -2.6687,-0.1273 -2.8892,-0.2214 0.1132,-0.1553 0.8109,-0.4327 1.6755,-0.6027 0.0826,-0.0162 0.1394,-0.0925 0.1312,-0.1764 -0.0082,-0.0838 -0.0786,-0.1477 -0.1628,-0.1477 -0.5068,0.0001 -3.0484,0.0407 -3.3141,0.8439z"/>
       <path id="XMLID_11_" class="fil0" d="M200.883 174.283c-0.7145,0 -1.3921,0.358 -1.4206,0.3733 -0.0661,0.0354 -0.0996,0.1112 -0.0815,0.1839 0.0182,0.0727 0.0836,0.1238 0.1585,0.1239 0.0152,0 1.5242,0.0123 1.6609,0.8745 0.121,0.7438 -1.4278,1.9489 -2.0348,2.3506 -0.0656,0.0433 -0.091,0.1272 -0.0606,0.1997 0.0258,0.0617 0.086,0.1003 0.1508,0.1003 0.0113,0 0.0227,-0.0012 0.0341,-0.0037 0.1441,-0.0307 3.5239,-0.7755 3.1666,-2.7434 -0.218,-1.206 -0.976,-1.4591 -1.5734,-1.4591z"/>
       <path id="XMLID_12_" class="fil0" d="M198.565 177.948c0.0117,-0.0631 -0.0145,-0.1272 -0.067,-0.164l-0.8104 -0.5676c-0.0395,-0.0277 -0.0894,-0.0364 -0.1358,-0.0241 -0.0085,0.0022 -0.8559,0.225 -2.0864,0.3616 -0.4883,0.0548 -1.0353,0.0837 -1.5818,0.0837 -1.2301,0 -2.0344,-0.1446 -2.1515,-0.2506 -0.0155,-0.0297 -0.0106,-0.0433 -0.0079,-0.0508 0.0213,-0.0592 0.1353,-0.1296 0.2089,-0.1574 0.0812,-0.03 0.125,-0.1182 0.0997,-0.2011 -0.0252,-0.0828 -0.1106,-0.1316 -0.1949,-0.1113 -0.8129,0.1961 -1.2104,0.4705 -1.1815,0.8153 0.0514,0.6114 1.4676,0.9252 2.6648,1.0082 0.1722,0.0118 0.3584,0.0178 0.5533,0.0178 0.0001,0 0.0002,0 0.0003,0 1.9908,0 4.543,-0.6246 4.5685,-0.6309 0.0623,-0.0154 0.1098,-0.0658 0.1217,-0.1288z"/>
       <path id="XMLID_13_" class="fil0" d="M192.456 179.26c0.0614,-0.04 0.0886,-0.1158 0.0668,-0.1857 -0.0217,-0.0699 -0.0871,-0.1157 -0.1605,-0.1148 -0.1089,0.0029 -1.066,0.0461 -1.133,0.6554 -0.0203,0.1821 0.0318,0.3485 0.155,0.4944 0.3437,0.4073 1.2713,0.6493 2.8354,0.7401 0.185,0.0111 0.373,0.0166 0.5587,0.0166 1.9885,0 3.3278,-0.6226 3.3838,-0.6491 0.0544,-0.0257 0.0903,-0.0791 0.0935,-0.1392 0.0032,-0.06 -0.0268,-0.1169 -0.0781,-0.1483l-1.0242 -0.6252c-0.0355,-0.0217 -0.078,-0.0289 -0.1186,-0.0206 -0.0065,0.0014 -0.6567,0.1363 -1.6381,0.2696 -0.1857,0.0252 -0.4182,0.038 -0.6911,0.038 -0.9803,0 -2.0707,-0.1602 -2.2798,-0.265 -0.003,-0.0197 0.0008,-0.0446 0.0302,-0.0662z"/>
       <path id="XMLID_14_" class="fil0" d="M193.851 182.746c4.5548,-0.0038 6.9994,-0.8138 7.4704,-1.3235 0.1667,-0.1804 0.1847,-0.3512 0.1705,-0.4627 -0.035,-0.2744 -0.2849,-0.4424 -0.3133,-0.4606 -0.0684,-0.044 -0.1601,-0.0325 -0.2134,0.029 -0.0532,0.0616 -0.0545,0.1515 -0.0011,0.2129 0.0287,0.037 0.0454,0.0988 -0.0387,0.1829 -0.1882,0.1758 -2.0871,0.7095 -5.2487,0.8699 -0.4331,0.0225 -0.8873,0.0339 -1.3501,0.034 -2.8307,0 -4.9024,-0.3877 -5.1744,-0.6137 0.1049,-0.1506 0.8377,-0.3912 1.617,-0.5273 0.0878,-0.0153 0.1471,-0.0981 0.1335,-0.1861 -0.0136,-0.0881 -0.0948,-0.1488 -0.1835,-0.1372 -0.022,0.003 -0.0965,0.0076 -0.183,0.0128 -1.2858,0.0785 -2.7717,0.2535 -2.8493,0.916 -0.0235,0.2019 0.0365,0.3851 0.1784,0.5447 0.3473,0.3901 1.3454,0.9089 5.9855,0.9089 0.0001,0 0.0001,0 0.0002,0z"/>
       <path id="XMLID_15_" class="fil0" d="M202.216 181.566c-0.0643,-0.0298 -0.1404,-0.0147 -0.1885,0.0371 -0.0067,0.0072 -0.6915,0.7233 -2.7505,1.1438 -0.7882,0.1579 -2.2679,0.238 -4.3978,0.238 -2.1339,0 -4.1643,-0.0839 -4.1846,-0.0848 -0.0848,-0.0041 -0.1574,0.0575 -0.1689,0.141 -0.0116,0.0835 0.0422,0.1621 0.1241,0.1816 0.0212,0.005 2.1491,0.5035 5.0587,0.5035 1.3954,0 2.7534,-0.1133 4.0361,-0.337 2.3918,-0.4193 2.5593,-1.6053 2.5652,-1.6555 0.0083,-0.0703 -0.0295,-0.1379 -0.0938,-0.1677z"/>
      </g>
      <g id="_175231216">
      </g>
      <g id="_175231168">
      </g>
      <g id="_175231408">
      </g>
      <g id="_175231048">
      </g>
      <g id="_175230808">
      </g>
      <g id="_175230712">
      </g>
      <g id="_175230952">
      </g>
      <g id="_175230496">
      </g>
      <g id="_175230688">
      </g>
      <g id="_175230880">
      </g>
      <g id="_175230664">
      </g>
      <g id="_175229776">
      </g>
      <g id="_175229656">
      </g>
      <g id="_175230136">
      </g>
      <g id="_175229632">
      </g>
     </g>
    </g>
   </g>
   <polygon class="fil1 str0" points="195.082,157.604 202.145,161.64 209.208,165.676 209.208,173.748 209.208,181.821 202.145,185.857 195.082,189.893 188.019,185.857 180.955,181.821 180.955,173.748 180.955,165.676 188.019,161.64 "/>
   <g>
   </g>
   <g style="clip-path:url(#id3)">
    <g>
     <g>
      <g>
       <g id="_175226272">
        <path id="_175225816" class="fil0" d="M164.882 173.207c-0.3928,0.2439 -0.7861,0.3821 -1.2,0.469 -0.607,0.1276 -1.2159,0.1276 -1.8224,0.0112 -0.5239,-0.1004 -0.9537,-0.3832 -1.3005,-0.7773 -0.6872,-0.781 -1.1825,-1.6637 -1.329,-2.7104 -0.201,-1.4342 0.3019,-2.596 1.402,-3.5075 0.7893,-0.654 1.7268,-0.9709 2.7224,-1.1477 1.5621,-0.277 3.0394,0.0268 4.4692,0.6452 0.7341,0.3177 1.4435,0.6933 2.2017,0.9555 0.1673,0.058 0.3367,0.1103 0.5127,0.1352 0.3177,0.0444 0.5779,-0.0631 0.7872,-0.2993 0.2734,-0.3089 0.3696,-0.6806 0.3689,-1.0849 0.0768,-0.0044 0.0927,0.0557 0.1173,0.1009 0.2332,0.4285 0.1667,1.1257 -0.1498,1.4886 -0.3312,0.3802 -0.7717,0.4479 -1.2397,0.3937 -0.532,-0.0614 -1.0375,-0.2167 -1.5224,-0.4477 -0.9112,-0.4344 -1.8355,-0.8354 -2.8256,-1.0595 -1.2395,-0.2808 -2.4692,-0.2314 -3.6724,0.1683 -1.7518,0.5819 -2.6727,2.3225 -2.1957,4.109 0.2751,1.0309 0.8549,1.8429 1.7606,2.417 0.3918,0.2485 0.8237,0.3264 1.2794,0.3205 0.4612,-0.0066 0.9106,-0.0965 1.361,-0.1817 0.078,-0.015 0.154,-0.0344 0.2751,0.0019z"/>
        <path id="_175226176" class="fil0" d="M166.724 181.995c-0.0841,-0.0282 -0.2411,0.0657 -0.266,-0.0516 -0.0245,-0.1146 0.1393,-0.1522 0.2346,-0.1922 0.581,-0.2416 1.1667,-0.4724 1.7478,-0.7136 0.3618,-0.1502 0.7149,-0.32 1.0397,-0.5416 0.1116,-0.0763 0.2143,-0.163 0.3048,-0.2639 0.1437,-0.1603 0.1783,-0.3293 0.0945,-0.5397 -0.442,-1.1068 -0.9356,-2.1939 -1.323,-3.3228 -0.3124,-0.9102 -0.5601,-1.8332 -0.626,-2.8012 -0.0776,-1.142 0.3178,-2.03 1.3033,-2.6412 0.4645,-0.2886 0.9633,-0.5036 1.4628,-0.7196 0.6174,-0.2669 1.2286,-0.5406 1.7702,-0.9543 0.8107,-0.6182 1.0768,-1.4473 1.0074,-2.4254 -0.0311,-0.4403 -0.1047,-0.8728 -0.2053,-1.3019 -0.0116,-0.0486 -0.0777,-0.1205 0.0099,-0.1581 0.0789,-0.0343 0.1209,0.0271 0.1549,0.0897 0.2639,0.4796 0.4702,0.9773 0.5346,1.5285 0.1246,1.0602 -0.3393,1.8687 -1.0729,2.5683 -0.4681,0.4464 -1.0428,0.7226 -1.6097,1.0107 -0.5119,0.2602 -1.0405,0.4905 -1.5228,0.8066 -0.5258,0.3445 -0.9615,0.764 -1.1062,1.4045 -0.1179,0.5209 -0.0222,1.0363 0.0827,1.5464 0.2308,1.1214 0.685,2.1661 1.1334,3.2115 0.232,0.5393 0.4791,1.0724 0.6635,1.63 0.2975,0.899 0.0492,1.5923 -0.7509,2.0972 -0.5755,0.3628 -1.2205,0.5215 -1.8821,0.627 -0.3871,0.0614 -0.7781,0.0806 -1.1792,0.1067z"/>
        <path id="_175226152" class="fil0" d="M158.98 171.211c-0.0143,0.0936 -0.0673,0.1647 -0.1181,0.2371 -0.8554,1.2207 -1.5883,2.5077 -2.141,3.8955 -0.3849,0.9671 -0.4773,1.9547 -0.2232,2.9652 0.3147,1.2499 1.147,2.0218 2.3203,2.4756 0.8508,0.3288 1.7376,0.487 2.6374,0.5929 1.2503,0.1479 2.5056,0.2466 3.7586,0.3682 0.1206,0.0116 0.2398,0.0449 0.3574,0.0767 0.0567,0.0152 0.1299,0.0384 0.1221,0.115 -0.0095,0.0888 -0.0917,0.0621 -0.1472,0.0667 -0.8112,0.066 -1.6235,0.1027 -2.4374,0.1148 -1.145,0.0171 -2.294,0.0251 -3.4233,-0.1652 -1.8347,-0.3091 -3.2567,-1.2224 -3.9468,-3.0246 -0.3699,-0.9671 -0.3234,-1.9745 -0.0255,-2.9566 0.447,-1.4733 1.1232,-2.8254 2.2241,-3.9326 0.2852,-0.2865 0.6065,-0.5329 0.9209,-0.7861 0.0306,-0.0241 0.0589,-0.0627 0.1217,-0.0426z"/>
        <path id="_175225936" class="fil0" d="M162.11 177.918c1.2975,-0.2127 2.5925,-0.3293 3.897,-0.1732 0.6215,0.0747 0.7396,0.2019 0.754,0.8287 0.0234,0.992 -0.1152,1.9648 -0.3966,2.9165 -0.0469,0.1583 -0.1051,0.3142 -0.2034,0.4496 -0.0388,0.0534 -0.0819,0.1207 -0.1616,0.0927 -0.0703,-0.0245 -0.0608,-0.099 -0.0638,-0.1585 -0.0191,-0.424 0.0503,-0.842 0.0895,-1.2621 0.0561,-0.6017 0.1568,-1.2006 0.1013,-1.8101 -0.0177,-0.1927 -0.1061,-0.31 -0.2771,-0.3922 -0.5059,-0.2424 -1.0487,-0.3212 -1.5971,-0.3752 -0.6704,-0.0652 -1.3445,-0.059 -2.0162,-0.0991 -0.0423,-0.0025 -0.0838,-0.0112 -0.126,-0.0171z"/>
       </g>
      </g>
      <g>
      </g>
      <g>
      </g>
      <g>
      </g>
      <g>
      </g>
      <g>
      </g>
      <g>
      </g>
      <g>
      </g>
      <g>
      </g>
      <g>
      </g>
      <g>
      </g>
      <g>
      </g>
      <g>
      </g>
      <g>
      </g>
      <g>
      </g>
      <g>
      </g>
     </g>
    </g>
   </g>
   <polygon class="fil1 str0" points="164.732,157.598 171.795,161.634 178.858,165.67 178.858,173.743 178.858,181.815 171.795,185.851 164.732,189.887 157.669,185.851 150.605,181.815 150.605,173.743 150.605,165.67 157.669,161.634 "/>
   <g>
   </g>
   <g style="clip-path:url(#id4)">
    <g>
     <g>
      <g>
       <path class="fil0" d="M187.485 139.59l-15.455 0c-0.2918,0 -0.5283,0.2366 -0.5283,0.5283l0 15.455c0,0.2917 0.2365,0.5283 0.5283,0.5283l15.455 0c0.2918,0 0.5283,-0.2366 0.5283,-0.5283l0 -15.455c0,-0.2917 -0.2365,-0.5283 -0.5283,-0.5283zm-8.1601 10.211c-0.5009,0.4383 -1.1407,0.6797 -1.8016,0.6797 -1.4849,0 -2.693,-1.1833 -2.693,-2.6379 0,-1.4513 1.2081,-2.6319 2.693,-2.6319 0.6618,0 1.2994,0.2394 1.7955,0.6739 0.2046,0.1793 0.2251,0.4904 0.0458,0.695 -0.1792,0.2047 -0.4904,0.2253 -0.695,0.0459 -0.3163,-0.277 -0.7234,-0.4297 -1.1463,-0.4297 -0.9418,0 -1.7079,0.7387 -1.7079,1.6468 0,0.9113 0.7661,1.6528 1.7079,1.6528 0.4222,0 0.8316,-0.1549 1.1528,-0.436 0.2047,-0.1791 0.5159,-0.1584 0.6951,0.0464 0.1791,0.2047 0.1584,0.5159 -0.0463,0.695zm4.8672 -1.6377c0.272,0 0.4925,0.2205 0.4925,0.4925 0,0.272 -0.2205,0.4925 -0.4925,0.4925l-0.5742 0 -0.1785 0.7874c-0.0518,0.2286 -0.2549,0.3838 -0.4799,0.3838 -0.0361,0 -0.0727,-0.004 -0.1093,-0.0123 -0.2653,-0.0602 -0.4316,-0.3239 -0.3715,-0.5892l0.1291 -0.5696 -1.0672 0 -0.1784 0.7873c-0.0518,0.2287 -0.255,0.3838 -0.4799,0.3838 -0.0361,0 -0.0727,-0.0039 -0.1093,-0.0122 -0.2653,-0.0602 -0.4316,-0.324 -0.3715,-0.5892l0.1293 -0.5705c-0.2645,-0.0086 -0.4764,-0.2252 -0.4764,-0.4917 0,-0.2721 0.2205,-0.4926 0.4925,-0.4926l0.207 0 0.1439 -0.6349 -0.3509 0c-0.272,0 -0.4925,-0.2206 -0.4925,-0.4925 0,-0.2721 0.2205,-0.4926 0.4925,-0.4926l0.5742 0 0.1785 -0.7873c0.0601,-0.2653 0.324,-0.4316 0.5892,-0.3715 0.2653,0.0602 0.4316,0.3239 0.3715,0.5892l-0.1291 0.5696 1.0672 0 0.1784 -0.7873c0.0601,-0.2653 0.324,-0.4316 0.5893,-0.3715 0.2653,0.0602 0.4316,0.3239 0.3715,0.5892l-0.1294 0.5705c0.2645,0.0085 0.4765,0.2251 0.4765,0.4917 0,0.272 -0.2205,0.4925 -0.4926,0.4925l-0.2069 0 -0.144 0.635 0.3509 0 0 -0.0001z"/>
       <polygon class="fil0" points="181.764,148.164 182.831,148.164 182.975,147.529 181.908,147.529 "/>
      </g>
      <g>
      </g>
      <g>
      </g>
      <g>
      </g>
      <g>
      </g>
      <g>
      </g>
      <g>
      </g>
      <g>
      </g>
      <g>
      </g>
      <g>
      </g>
      <g>
      </g>
      <g>
      </g>
      <g>
      </g>
      <g>
      </g>
      <g>
      </g>
      <g>
      </g>
     </g>
    </g>
   </g>
   <polygon class="fil1 str0" points="179.757,131.702 186.82,135.738 193.884,139.774 193.884,147.846 193.884,155.919 186.82,159.955 179.757,163.991 172.694,159.955 165.63,155.919 165.63,147.846 165.63,139.774 172.694,135.738 "/>
   <g>
   </g>
   <g style="clip-path:url(#id5)">
    <g>
     <g>
      <g>
       <g>
        <path class="fil0" d="M186.479 194.848c-0.0388,-1.1732 -0.0603,-2.7583 -0.0489,-3.9323 0.0004,-0.0523 -0.0079,-0.0984 -0.0198,-0.1419 0.0228,-0.2558 -0.1273,-0.5258 -0.4548,-0.5172 -4.1355,0.1085 -8.27,-0.0534 -12.4053,-0.0599 -0.344,-0.0007 -0.4947,0.3018 -0.4522,0.5672 -0.0137,0.0461 -0.0233,0.0956 -0.0227,0.1521 0.0624,4.9346 0.2321,12.0248 0.2374,16.9603 0,0.1108 0.0314,0.2005 0.0815,0.2718 0.0304,0.2091 0.1808,0.394 0.4528,0.3873 1.7874,-0.0444 3.5755,-0.073 5.3615,-0.1606 1.592,-0.0781 3.5757,0.0265 5.0973,-0.4929 0.5385,-0.184 1.0205,-0.4561 1.4337,-0.8499 0.7551,-0.7198 1.0128,-1.6861 1.0781,-2.7044 0.0624,-0.9782 -0.0528,-2.0041 -0.0758,-2.9054 -0.0588,-2.328 -0.1865,-4.2467 -0.2628,-6.5742zm-2.6166 8.8018c-0.2911,0.0016 -0.5724,0.2289 -0.4424,0.5779 0.2616,0.7022 0.3812,1.574 -0.0209,2.2456 -0.4864,0.8122 -1.3542,0.7901 -2.1794,0.8941 -0.5046,0.0637 -1.0411,0.0299 -1.5499,0.0443 -0.3959,0.0111 -5.4087,0.1333 -5.4087,0.1529 -0.0118,-4.7503 -0.1688,-11.6562 -0.2323,-16.4062 3.8181,0.0164 7.6351,0.1476 11.4531,0.066 -0.0146,3.9001 0.3312,9.5379 0.3516,12.6202 -0.5921,-0.1869 -1.2043,-0.2658 -1.8364,-0.2234 -0.0498,0.0031 -0.0939,0.0144 -0.1347,0.0286zm0.3728 3.247c0.3836,-0.6533 0.4791,-1.455 0.2798,-2.3241 0.4618,0.018 0.9171,0.107 1.348,0.2898 0.0021,0.0052 0.0034,0.0109 0.0052,0.0163 -0.14,1.0298 -0.7912,1.6616 -1.633,2.018z"/>
        <path class="fil0" d="M179.584 195.894c-0.9849,0.0353 -1.9697,0.0686 -2.9556,0.0712 -0.6201,0.0017 -0.6201,0.9632 0,0.9615 0.4164,-0.0011 0.8324,-0.0098 1.2487,-0.0198 0.1764,0.7065 0.2942,1.4264 0.2791,2.1565 -0.0055,0.2669 -0.0287,0.6253 -0.2094,0.8406 -0.2069,0.2465 -0.692,-0.0294 -0.8977,-0.1339 -0.5515,-0.2805 -1.0381,0.549 -0.4852,0.83 0.9984,0.5079 2.0708,0.4826 2.4439,-0.728 0.2852,-0.9256 0.0807,-2.0476 -0.1473,-2.9933 0.2413,-0.0079 0.4825,-0.0148 0.7237,-0.0235 0.6181,-0.0218 0.6202,-0.9835 -0.0002,-0.9613z"/>
        <path class="fil0" d="M181.677 197.068c-0.0928,-0.1926 -0.05,-0.3364 -0.1151,-0.2911 0.2802,-0.1957 0.8515,-0.0653 1.1564,-0.0286 0.6147,0.074 0.6078,-0.8884 0,-0.9614 -0.6422,-0.0771 -1.6219,-0.165 -1.9863,0.5221 -0.2927,0.5519 0.0697,1.2066 0.3529,1.681 0.3489,0.5846 0.7852,1.1187 1.0809,1.7347 0.0242,0.0503 0.058,0.1752 0.0696,0.2203 -0.2989,0.1569 -0.9391,-0.0255 -1.241,-0.0813 -0.606,-0.1123 -0.865,0.8146 -0.2557,0.9271 0.6521,0.1207 1.7292,0.373 2.2456,-0.2181 0.442,-0.506 0.1093,-1.193 -0.1757,-1.6848 -0.3584,-0.618 -0.82,-1.1742 -1.1316,-1.8199z"/>
       </g>
      </g>
      <g>
      </g>
      <g>
      </g>
      <g>
      </g>
      <g>
      </g>
      <g>
      </g>
      <g>
      </g>
      <g>
      </g>
      <g>
      </g>
      <g>
      </g>
      <g>
      </g>
      <g>
      </g>
      <g>
      </g>
      <g>
      </g>
      <g>
      </g>
      <g>
      </g>
     </g>
    </g>
   </g>
   <polygon class="fil1 str0" points="179.955,183.222 187.019,187.258 194.082,191.294 194.082,199.366 194.082,207.439 187.019,211.475 179.955,215.511 172.892,211.475 165.829,207.439 165.829,199.366 165.829,191.294 172.892,187.258 "/>
   <g>
   </g>
   <g style="clip-path:url(#id6)">
    <g>
     <g>
      <g>
       <g>
        <g>
         <path class="fil0" d="M133.213 178.11c-0.1697,0 -0.2847,0.0164 -0.3449,0.0328l0 1.0893c0.0711,0.0167 0.1587,0.0221 0.2792,0.0221 0.4435,0 0.7173,-0.2244 0.7173,-0.6024 -0.0002,-0.3391 -0.2357,-0.5418 -0.6516,-0.5418z"/>
         <path class="fil0" d="M141.005 169.684c-0.0009,-0.0757 -0.0249,-0.1504 -0.0768,-0.2093l-3.1785 -3.6308c-0.0006,-0.0009 -0.0016,-0.0013 -0.0025,-0.0022 -0.019,-0.0211 -0.0407,-0.0387 -0.0641,-0.054 -0.0069,-0.0046 -0.0139,-0.0086 -0.0212,-0.0126 -0.0205,-0.011 -0.0417,-0.02 -0.0637,-0.0267 -0.006,-0.0017 -0.0114,-0.0041 -0.0174,-0.0058 -0.0243,-0.0056 -0.0489,-0.0092 -0.0741,-0.0092l-7.8116 0c-0.3564,0 -0.6465,0.2901 -0.6465,0.6465l0 15.1919c0,0.3566 0.2901,0.6465 0.6465,0.6465l10.6666 0c0.3567,0 0.6465,-0.2899 0.6465,-0.6465l0 -11.8518c0.0001,-0.0121 -0.0019,-0.0241 -0.0032,-0.036zm-6.6531 9.8222c-0.2846,0.2681 -0.7063,0.3885 -1.1989,0.3885 -0.1096,0 -0.208,-0.0053 -0.2848,-0.0164l0 1.3195 -0.8265 0 0 -3.6408c0.2573,-0.0438 0.6187,-0.0767 1.1278,-0.0767 0.5146,0 0.8815,0.0986 1.1277,0.2956 0.2355,0.1862 0.3942,0.4929 0.3942,0.8541 0,0.3613 -0.1205,0.668 -0.3395,0.8762zm2.4477 0.1532l0 1.5384 -0.8321 0 0 -1.5111 -1.1661 -2.1786 0.9527 0 0.3777 0.8866c0.1148,0.2683 0.1917,0.4653 0.2847,0.7063l0.0111 0c0.082,-0.23 0.1696,-0.4435 0.2791,-0.7063l0.3722 -0.8866 0.9363 0 -1.2156 2.1513zm-7.1045 -2.9495l0 -10.33 7.4883 0 0 3.3076c0,0.1784 0.1446,0.3232 0.3233,0.3232l2.8551 0 0.0003 6.6992 -10.667 0 0 0z"/>
        </g>
        <g>
         <path class="fil0" d="M135.53 171.95c0.3848,-0.0102 0.6821,-0.3311 0.6884,-0.7166 0.0041,-0.2483 0.0007,-0.4971 0.0008,-0.7455 0.0002,-0.2487 0.0016,-0.4971 -0.0008,-0.7456 -0.0006,-0.0576 -0.0063,-0.1179 -0.0233,-0.1727 -0.1057,-0.3452 -0.3624,-0.5381 -0.6989,-0.5791 -0.4013,-0.049 -0.8098,-0.0598 -1.2143,-0.0526 -0.2212,0.004 -0.4462,0.063 -0.6605,0.127 -0.2975,0.0891 -0.4141,0.2605 -0.4255,0.5694 -0.0065,0.1762 0.0003,0.3528 -0.0101,0.5286 -0.0074,0.1277 0.0425,0.1602 0.1649,0.1582 0.4156,-0.0066 0.8315,0.0006 1.2472,-0.0034 0.0975,-0.0009 0.1216,0.0355 0.1216,0.1269 0,0.1256 -0.0854,0.106 -0.1588,0.1063 -0.6507,0.002 -1.3017,0.0126 -1.9522,0 -0.4966,-0.0094 -0.8598,0.33 -0.9594,0.7548 -0.0725,0.3095 -0.1275,0.6203 -0.0996,0.9373 0.029,0.333 0.0751,0.6653 0.2416,0.9639 0.129,0.2318 0.324,0.375 0.5949,0.3906 0.1531,0.0091 0.3072,-0.0014 0.4608,0.0042 0.0914,0.0032 0.1167,-0.036 0.1147,-0.1213 -0.0044,-0.1896 0.0017,-0.3796 -0.0021,-0.5692 -0.0037,-0.1835 0.053,-0.3472 0.1524,-0.4965 0.2167,-0.3253 0.5314,-0.4596 0.9133,-0.4594 0.502,-0.0002 1.0038,0.008 1.5049,-0.0053zm-1.6923 -1.9896c-0.1651,-0.0002 -0.303,-0.1342 -0.3055,-0.2972 -0.0028,-0.1667 0.1414,-0.3158 0.3055,-0.3158 0.1554,-0.0002 0.3032,0.1456 0.3072,0.3027 0.0043,0.1685 -0.1366,0.3104 -0.3072,0.3103z"/>
         <path class="fil0" d="M137.941 171.975c-0.0291,-0.3327 -0.0751,-0.6652 -0.2415,-0.964 -0.129,-0.2316 -0.3241,-0.3748 -0.595,-0.3905 -0.1531,-0.0088 -0.3074,0.0017 -0.4607,-0.004 -0.0916,-0.0032 -0.117,0.0361 -0.1147,0.1212 0.0041,0.1897 -0.0019,0.3799 0.0019,0.5692 0.0037,0.1834 -0.0531,0.3473 -0.1525,0.4968 -0.2165,0.3253 -0.5312,0.4594 -0.9132,0.4592 -0.5016,0 -1.0033,-0.0082 -1.5047,0.0051 -0.3846,0.0102 -0.682,0.3311 -0.6882,0.7164 -0.0041,0.2484 -0.0009,0.4971 -0.0011,0.7456 -0.0001,0.2485 -0.0015,0.4969 0.0008,0.7456 0.0006,0.0578 0.0065,0.1178 0.0233,0.1727 0.1058,0.3453 0.3626,0.5379 0.6992,0.5791 0.4013,0.0489 0.8095,0.0598 1.2142,0.0525 0.2211,-0.0041 0.4462,-0.0628 0.6606,-0.1269 0.2975,-0.089 0.4141,-0.2606 0.4253,-0.5694 0.0066,-0.1761 -0.0003,-0.3528 0.0099,-0.5284 0.0076,-0.1279 -0.0423,-0.1604 -0.1647,-0.1583 -0.4158,0.0064 -0.8315,-0.0005 -1.2472,0.0036 -0.0976,0.0008 -0.1217,-0.0357 -0.1217,-0.1269 0.0002,-0.1258 0.0855,-0.1062 0.1591,-0.1063 0.6507,-0.0019 1.3016,-0.0127 1.9522,-0.0003 0.4966,0.0096 0.8597,-0.3299 0.9593,-0.7545 0.0722,-0.3096 0.1272,-0.6205 0.0994,-0.9375zm-2.288 2.2826c0.1652,0 0.303,0.134 0.3055,0.297 0.0026,0.1669 -0.1414,0.3157 -0.3055,0.316 -0.1556,0 -0.3036,-0.1457 -0.3072,-0.3028 -0.0042,-0.1685 0.1365,-0.3105 0.3072,-0.3102z"/>
        </g>
       </g>
      </g>
      <g>
      </g>
      <g>
      </g>
      <g>
      </g>
      <g>
      </g>
      <g>
      </g>
      <g>
      </g>
      <g>
      </g>
      <g>
      </g>
      <g>
      </g>
      <g>
      </g>
      <g>
      </g>
      <g>
      </g>
      <g>
      </g>
      <g>
      </g>
      <g>
      </g>
     </g>
    </g>
   </g>
   <polygon class="fil1 str0" points="135.028,157.831 142.091,161.867 149.154,165.903 149.154,173.975 149.154,182.048 142.091,186.084 135.028,190.12 127.965,186.084 120.901,182.048 120.901,173.975 120.901,165.903 127.965,161.867 "/>
   <g>
   </g>
   <g style="clip-path:url(#id7)">
    <g>
     <g>
      <g>
       <g>
        <g>
         <polygon class="fil0" points="144.003,198.63 144.685,201.167 145.688,201.167 146.956,197.224 145.925,197.224 145.173,199.808 144.513,197.224 143.506,197.224 142.825,199.808 142.087,197.224 141.073,197.224 142.321,201.167 143.336,201.167 "/>
         <polygon class="fil0" points="150.427,197.224 149.421,197.224 148.74,199.808 147.998,197.224 146.984,197.224 148.234,201.167 149.25,201.167 149.918,198.63 150.601,201.167 151.603,201.167 152.871,197.224 151.842,197.224 151.086,199.808 "/>
         <polygon class="fil0" points="157.753,197.224 156.999,199.808 156.34,197.224 155.332,197.224 154.651,199.808 153.913,197.224 152.897,197.224 154.148,201.167 155.163,201.167 155.83,198.63 156.511,201.167 157.516,201.167 158.785,197.224 "/>
         <path class="fil0" d="M149.928 191.641c-3.0503,0 -5.674,1.8029 -6.881,4.3963l13.7627 0c-1.2085,-2.5934 -3.8315,-4.3963 -6.8817,-4.3963z"/>
         <path class="fil0" d="M149.928 206.833c3.0509,0 5.6717,-1.8021 6.8809,-4.3963l-13.7604 0c1.207,2.5934 3.8293,4.3963 6.8795,4.3963z"/>
        </g>
       </g>
       <g>
       </g>
       <g>
       </g>
       <g>
       </g>
       <g>
       </g>
       <g>
       </g>
       <g>
       </g>
       <g>
       </g>
       <g>
       </g>
       <g>
       </g>
       <g>
       </g>
       <g>
       </g>
       <g>
       </g>
       <g>
       </g>
       <g>
       </g>
       <g>
       </g>
      </g>
      <g>
      </g>
      <g>
      </g>
      <g>
      </g>
      <g>
      </g>
      <g>
      </g>
      <g>
      </g>
      <g>
      </g>
      <g>
      </g>
      <g>
      </g>
      <g>
      </g>
      <g>
      </g>
      <g>
      </g>
      <g>
      </g>
      <g>
      </g>
      <g>
      </g>
     </g>
    </g>
   </g>
   <polygon class="fil1 str0" points="149.929,183.092 156.992,187.129 164.055,191.165 164.055,199.237 164.055,207.309 156.992,211.346 149.929,215.382 142.866,211.346 135.802,207.309 135.802,199.237 135.802,191.165 142.866,187.129 "/>
   <g>
   </g>
   <g style="clip-path:url(#id8)">
    <g>
     <g>
      <g>
       <path class="fil0" d="M157.599 114.327l1.282 14.404 5.7497 1.6225 5.7896 -1.6225 1.2822 -14.404 -14.1035 0zm11.3188 4.6979l-6.7512 0 0.1502 1.813 6.4508 0 -0.5008 5.449 -3.596 0.9915 0 0.0101 -0.0401 0 -3.6262 -1.0016 -0.2203 -2.7845 1.753 0 0.1302 1.4023 1.9632 0.5307 1.9733 -0.5307 0.2204 -2.2838 -6.1302 0 -0.4707 -5.3489 8.8548 0 -0.1604 1.7529z"/>
      </g>
      <g>
      </g>
      <g>
      </g>
      <g>
      </g>
      <g>
      </g>
      <g>
      </g>
      <g>
      </g>
      <g>
      </g>
      <g>
      </g>
      <g>
      </g>
      <g>
      </g>
      <g>
      </g>
      <g>
      </g>
      <g>
      </g>
      <g>
      </g>
      <g>
      </g>
     </g>
    </g>
   </g>
   <polygon class="fil1 str0" points="164.65,106.196 171.714,110.232 178.777,114.268 178.777,122.34 178.777,130.412 171.714,134.449 164.65,138.485 157.587,134.449 150.524,130.412 150.524,122.34 150.524,114.268 157.587,110.232 "/>
   <g>
   </g>
   <g style="clip-path:url(#id9)">
    <g>
     <g>
      <g>
       <g>
        <g>
         <path class="fil0" d="M172.271 221.701l-5.2042 -4.9232c-0.105,-0.1049 -0.281,-0.176 -0.4571,-0.176l-7.9773 0c-0.386,0 -0.7043,0.3149 -0.7043,0.7042l0 15.1149c0,0.386 0.3149,0.7043 0.7043,0.7043l13.1476 0c0.386,0 0.7043,-0.3149 0.7043,-0.7043l0 -10.2289c-0.0034,-0.1761 -0.0745,-0.3522 -0.2133,-0.491zm-1.1953 10.0529l-11.7763 0 0 -13.7808 7.0292 0 4.7438 4.5338 0 9.247 0.0033 0z"/>
        </g>
        <g>
         <path class="fil0" d="M161.822 224.836l-0.7178 0c-0.1964,0 -0.3521,0.1591 -0.3521,0.3521l0 3.535c0,0.1963 0.1591,0.3521 0.3521,0.3521 0.193,0 0.3522,-0.1591 0.3522,-0.3521l0 -1.412 0.3656 0c0.6806,0 1.2359,-0.5553 1.2359,-1.2358 0,-0.684 -0.5553,-1.2393 -1.2359,-1.2393zm0 1.7675l-0.3656 0 0 -1.0598 0.3656 0c0.2912,0 0.5283,0.237 0.5283,0.5282 0,0.2945 -0.2371,0.5316 -0.5283,0.5316z"/>
         <path class="fil0" d="M168.425 224.836l-0.7179 0c-0.1964,0 -0.3521,0.1591 -0.3521,0.3521l0 3.535c0,0.1963 0.1591,0.3521 0.3521,0.3521 0.1964,0 0.3522,-0.1591 0.3522,-0.3521l0 -1.412 0.3657 0c0.6805,0 1.2358,-0.5553 1.2358,-1.2358 0,-0.684 -0.5553,-1.2393 -1.2358,-1.2393zm0 1.7675l-0.3657 0 0 -1.0598 0.3657 0c0.2911,0 0.5282,0.237 0.5282,0.5282 0,0.2945 -0.2371,0.5316 -0.5282,0.5316z"/>
         <path class="fil0" d="M166.295 224.836c-0.1964,0 -0.3522,0.1591 -0.3522,0.3521l0 1.412 -1.5202 0 0 -1.412c0,-0.1964 -0.1592,-0.3521 -0.3522,-0.3521 -0.1964,0 -0.3521,0.1591 -0.3521,0.3521l0 3.535c0,0.1963 0.1591,0.3521 0.3521,0.3521 0.1964,0 0.3522,-0.1591 0.3522,-0.3521l0 -1.412 1.5202 0 0 1.412c0,0.1963 0.1592,0.3521 0.3522,0.3521 0.1964,0 0.3521,-0.1591 0.3521,-0.3521l0 -3.5316c0,-0.1964 -0.1591,-0.3555 -0.3521,-0.3555z"/>
        </g>
       </g>
      </g>
      <g>
      </g>
      <g>
      </g>
      <g>
      </g>
      <g>
      </g>
      <g>
      </g>
      <g>
      </g>
      <g>
      </g>
      <g>
      </g>
      <g>
      </g>
      <g>
      </g>
      <g>
      </g>
      <g>
      </g>
      <g>
      </g>
      <g>
      </g>
      <g>
      </g>
     </g>
    </g>
   </g>
   <polygon class="fil1 str0" points="165.207,208.719 172.27,212.755 179.333,216.791 179.333,224.863 179.333,232.935 172.27,236.972 165.207,241.008 158.143,236.972 151.08,232.935 151.08,224.863 151.08,216.791 158.143,212.755 "/>
   <g>
   </g>
   <g style="clip-path:url(#id10)">
    <g>
     <g>
      <g>
       <path class="fil0" d="M187.043 93.4034c-0.6678,0 -1.2143,0.5465 -1.2143,1.2143l0 4.8572c0,0.6678 0.5465,1.2142 1.2143,1.2142 0.6679,0 1.2143,-0.5463 1.2143,-1.2142l0 -4.8572c0,-0.6678 -0.5464,-1.2143 -1.2143,-1.2143zm-14.5714 0c-0.6679,0 -1.2143,0.5465 -1.2143,1.2143l0 4.8572c0,0.6678 0.5464,1.2142 1.2143,1.2142 0.6679,0 1.2143,-0.5463 1.2143,-1.2142l0 -4.8572c0,-0.6678 -0.5465,-1.2143 -1.2143,-1.2143zm1.8214 7.8929c0,1.0059 0.8155,1.8214 1.8214,1.8214l0.6072 0 0 2.4286c0,0.6678 0.5464,1.2143 1.2143,1.2143 0.6678,0 1.2143,-0.5465 1.2143,-1.2143l0 -2.4286 1.2142 0 0 2.4286c0,0.6678 0.5465,1.2143 1.2143,1.2143 0.6679,0 1.2143,-0.5465 1.2143,-1.2143l0 -2.4286 0.6072 0c1.0059,0 1.8214,-0.8155 1.8214,-1.8214l0 -6.6786 -10.9286 0 0 6.6786zm7.7145 -12.2663l0.7685 -1.4762c0.0386,-0.0741 0.0094,-0.1662 -0.0646,-0.2048 -0.0739,-0.0385 -0.1662,-0.0094 -0.2047,0.0646l-0.7801 1.4986c-0.6109,-0.2362 -1.2749,-0.3659 -1.9693,-0.3659 -0.6943,0 -1.3583,0.1297 -1.9693,0.3659l-0.7801 -1.4986c-0.0386,-0.074 -0.1307,-0.1031 -0.2048,-0.0645 -0.074,0.0385 -0.1031,0.1306 -0.0645,0.2047l0.7684 1.4763c-1.7195,0.7782 -2.9644,2.4206 -3.1803,4.3734l10.861 0c-0.2158,-1.9528 -1.4606,-3.5952 -3.1802,-4.3735zm-4.6788 3.4324c-0.4862,0 -0.8803,-0.3942 -0.8803,-0.8804 0,-0.4862 0.3941,-0.8803 0.8803,-0.8803 0.4862,0 0.8804,0.3941 0.8804,0.8803 -0.0001,0.4862 -0.3942,0.8804 -0.8804,0.8804zm4.8572 0c-0.4862,0 -0.8804,-0.3942 -0.8804,-0.8804 0,-0.4862 0.3942,-0.8803 0.8804,-0.8803 0.4861,0 0.8803,0.3941 0.8803,0.8803 0,0.4862 -0.3942,0.8804 -0.8803,0.8804z"/>
      </g>
      <g>
      </g>
      <g>
      </g>
      <g>
      </g>
      <g>
      </g>
      <g>
      </g>
      <g>
      </g>
      <g>
      </g>
      <g>
      </g>
      <g>
      </g>
      <g>
      </g>
      <g>
      </g>
      <g>
      </g>
      <g>
      </g>
      <g>
      </g>
      <g>
      </g>
     </g>
    </g>
   </g>
   <polygon class="fil1 str0" points="179.757,80.9017 186.82,84.9378 193.884,88.974 193.884,97.0463 193.884,105.119 186.82,109.155 179.757,113.191 172.694,109.155 165.63,105.119 165.63,97.0463 165.63,88.974 172.694,84.9378 "/>
   <g>
   </g>
   <g style="clip-path:url(#id11)">
    <g>
     <g>
      <g>
       <path class="fil0" d="M189.967 227.556c0,2.8973 2.343,5.241 5.2417,5.241 2.8987,0 5.2417,-2.3437 5.2417,-5.241l0 -2.9955 -10.4834 0 0 2.9955zm8.3267 -8.7094l1.5734 -1.5734 -0.6149 -0.621 -1.7227 1.7302c-0.7037,-0.3532 -1.482,-0.5617 -2.3209,-0.5617 -0.8388,0 -1.6171,0.2085 -2.3134,0.5617l-1.7301 -1.7302 -0.6149 0.6209 1.5734 1.5735c-1.303,0.9525 -2.1567,2.4775 -2.1567,4.2164l0 0.7481 10.4834 -0.0001 0 -0.748c0,-1.7389 -0.8536,-3.2639 -2.1566,-4.2164zm-5.3312 3.4671c-0.4117,0 -0.7487,-0.3371 -0.7487,-0.7481 0,-0.413 0.337,-0.7493 0.7487,-0.7493 0.4117,0 0.7487,0.3363 0.7487,0.7493 0,0.411 -0.3377,0.7481 -0.7487,0.7481zm4.4923 0c-0.4117,0 -0.7487,-0.3371 -0.7487,-0.7481 0,-0.413 0.337,-0.7493 0.7487,-0.7493 0.4117,0 0.7487,0.3363 0.7487,0.7493 0.0007,0.411 -0.337,0.7481 -0.7487,0.7481z"/>
      </g>
      <g>
      </g>
      <g>
      </g>
      <g>
      </g>
      <g>
      </g>
      <g>
      </g>
      <g>
      </g>
      <g>
      </g>
      <g>
      </g>
      <g>
      </g>
      <g>
      </g>
      <g>
      </g>
      <g>
      </g>
      <g>
      </g>
      <g>
      </g>
      <g>
      </g>
     </g>
    </g>
   </g>
   <polygon class="fil1 str0" points="195.209,208.58 202.272,212.617 209.335,216.653 209.335,224.725 209.335,232.797 202.272,236.834 195.209,240.87 188.146,236.834 181.082,232.797 181.082,224.725 181.082,216.653 188.146,212.617 "/>
   <g>
   </g>
   <g style="clip-path:url(#id12)">
    <g>
     <polygon class="fil1 str0" points="194.997,54.9437 202.06,58.9798 209.124,63.016 209.124,71.0883 209.124,79.1606 202.06,83.1968 194.997,87.2329 187.934,83.1968 180.87,79.1606 180.87,71.0883 180.87,63.016 187.934,58.9798 "/>
     <g>
      <g>
       <path class="fil0" d="M187.555 70.5918l-0.0054 -4.8417 5.9577 -0.809 0 5.6507 -5.9523 0zm6.9452 -5.795l7.9415 -1.1555 0 6.9505 -7.9415 0 0 -5.795zm7.9435 6.788l-0.002 6.9506 -7.9415 -1.1173 0 -5.8333 7.9435 0zm-8.9364 5.7068l-5.9528 -0.8159 -0.0003 -4.8909 5.9531 0 0 5.7068z"/>
      </g>
      <g>
      </g>
      <g>
      </g>
      <g>
      </g>
      <g>
      </g>
      <g>
      </g>
      <g>
      </g>
      <g>
      </g>
      <g>
      </g>
      <g>
      </g>
      <g>
      </g>
      <g>
      </g>
      <g>
      </g>
      <g>
      </g>
      <g>
      </g>
      <g>
      </g>
     </g>
    </g>
   </g>
   <polygon class="fil1 str0" points="194.997,54.9437 202.06,58.9798 209.124,63.016 209.124,71.0883 209.124,79.1606 202.06,83.1968 194.997,87.2329 187.934,83.1968 180.87,79.1606 180.87,71.0883 180.87,63.016 187.934,58.9798 "/>
   <polygon class="fil1 str0" points="210,215.237 203.058,211.269 195.994,207.233 195.994,199.161 195.994,191.089 203.058,187.053 210,183.085 "/>
   <polygon class="fil1 str0" points="210,113.055 203.174,109.155 196.11,105.119 196.11,97.0463 196.11,88.974 203.174,84.9378 210,81.0371 "/>
   <g>
   </g>
   <g style="clip-path:url(#id13)">
    <g>
     <g>
      <g>
       <g>
        <path class="fil0" d="M195.025 130.773c4.326,0 7.8337,-0.9952 7.8337,-2.2206l0 -2.8004c-0.0514,0.0391 -0.1028,0.0761 -0.1583,0.1131 -0.4667,0.3125 -1.1103,0.586 -1.9121,0.8142 -1.5503,0.438 -3.5962,0.6806 -5.7633,0.6806 -2.1671,0 -4.213,-0.2426 -5.7633,-0.6806 -0.8018,-0.2282 -1.4454,-0.5017 -1.9121,-0.8142 -0.0555,-0.037 -0.1069,-0.074 -0.1583,-0.1131l0 2.8004c0,1.2254 3.5077,2.2206 7.8337,2.2206z"/>
        <path class="fil0" d="M195.025 126.538c4.18,0 7.5952,-0.9273 7.8214,-2.0972 0.0082,-0.0411 0.0123,-0.0822 0.0123,-0.1233l0 -2.821c-0.0514,0.039 -0.1028,0.0761 -0.1583,0.1131 -0.3927,0.2631 -0.9129,0.4996 -1.5482,0.7032 -0.1172,0.037 -0.2385,0.074 -0.3639,0.111 -0.1255,0.0349 -0.253,0.0699 -0.3846,0.1028 -0.3042,0.076 -0.6229,0.1439 -0.956,0.2056 -1.3098,0.2426 -2.8333,0.3721 -4.4227,0.3721 -1.5894,0 -3.1129,-0.1295 -4.4247,-0.3721 -0.3331,-0.0617 -0.6518,-0.1316 -0.9561,-0.2056 -0.1316,-0.0329 -0.2591,-0.0658 -0.3845,-0.1028 -0.1254,-0.035 -0.2467,-0.072 -0.3639,-0.111 -0.6353,-0.2036 -1.1555,-0.4401 -1.5483,-0.7032 -0.0555,-0.037 -0.1069,-0.0741 -0.1583,-0.1131l0 2.821c0,0.0411 0.0041,0.0822 0.0123,0.1233 0.2283,1.1699 3.6435,2.0972 7.8235,2.0972z"/>
        <path class="fil0" d="M190.6 121.893c0.4256,0.0823 0.88,0.1542 1.3591,0.2118 0.9417,0.1131 1.9779,0.1768 3.0656,0.1768 1.0877,0 2.124,-0.0637 3.0657,-0.1768 0.479,-0.0576 0.9334,-0.1295 1.359,-0.2118 1.9369,-0.3763 3.2487,-0.9931 3.3967,-1.6983 0.0103,-0.0453 0.0144,-0.0884 0.0144,-0.1337l0 -3.9888c0,-1.2254 -3.5077,-2.2206 -7.8338,-2.2206 -4.326,0 -7.8337,0.9952 -7.8337,2.2206l0 3.9888c0,0.0453 0.0041,0.0884 0.0144,0.1337 0.146,0.7052 1.4557,1.322 3.3926,1.6983zm5.2677 -1.7024c0,0.4647 -0.3783,0.843 -0.843,0.843 -0.4647,0 -0.843,-0.3783 -0.843,-0.843 0,-0.4647 0.3783,-0.843 0.843,-0.843 0.4647,0 0.843,0.3783 0.843,0.843z"/>
       </g>
      </g>
      <g>
      </g>
      <g>
      </g>
      <g>
      </g>
      <g>
      </g>
      <g>
      </g>
      <g>
      </g>
      <g>
      </g>
      <g>
      </g>
      <g>
      </g>
      <g>
      </g>
      <g>
      </g>
      <g>
      </g>
      <g>
      </g>
      <g>
      </g>
      <g>
      </g>
     </g>
    </g>
   </g>
   <polygon class="fil1 str0" points="195.025,106.168 202.088,110.204 209.151,114.24 209.151,122.313 209.151,130.385 202.088,134.421 195.025,138.457 187.961,134.421 180.898,130.385 180.898,122.313 180.898,114.24 187.961,110.204 "/>
   <g>
   </g>
   <g style="clip-path:url(#id14)">
    <g>
     <g>
      <g>
       <path class="fil0" d="M215.649 250.425l-0.6026 -0.6031c1.9695,-1.9699 1.969,-5.1738 -0.0009,-7.1433l0.6035 -0.6026c2.3022,2.3013 2.3022,6.0477 0,8.349zm-1.6456 -1.6456l0.6026 0.604c1.7271,-1.7276 1.7271,-4.5382 0,-6.2649l-0.6026 0.6026c1.3944,1.3939 1.3944,3.6644 0,5.0583zm-0.4725 -0.4726c1.1343,-1.1338 1.1343,-2.9797 -0.0005,-4.1131l-0.6025 0.6025c0.8025,0.8025 0.8025,2.107 0,2.9076l0.603 0.603zm-7.9295 -5.6282l-0.6035 -0.6026c-2.3017,2.3013 -2.3017,6.0477 0,8.349l0.6026 -0.6031c-1.9695,-1.969 -1.969,-5.1734 0.0009,-7.1433zm0.4385 6.7048l0.6031 -0.604c-1.3944,-1.3939 -1.3944,-3.663 0,-5.0583l-0.6031 -0.603c-1.7275,1.7266 -1.7275,4.5377 0,6.2653zm1.0756 -1.0766l0.6031 -0.603c-0.8016,-0.802 -0.8016,-2.1064 0.0004,-2.9076l-0.603 -0.6025c-1.1343,1.1348 -1.1343,2.9798 -0.0005,4.1131zm6.6745 8.5228l-2.0734 0 -1.2433 -8.9846c0.5792,-0.0746 1.0285,-0.5639 1.0285,-1.1637 0,-0.6505 -0.528,-1.1781 -1.1786,-1.1781 -0.651,0 -1.1786,0.528 -1.1786,1.1781 0,0.5998 0.4493,1.0891 1.0281,1.1637l-1.2429 8.9846 -2.0734 0c-0.4898,0 -0.8864,0.3975 -0.8864,0.8864 0,0.4898 0.3971,0.8864 0.8864,0.8864l6.9341 0c0.4898,0 0.8864,-0.398 0.8864,-0.8864 0,-0.4889 -0.3966,-0.8864 -0.8869,-0.8864z"/>
      </g>
      <g>
      </g>
      <g>
      </g>
      <g>
      </g>
      <g>
      </g>
      <g>
      </g>
      <g>
      </g>
      <g>
      </g>
      <g>
      </g>
      <g>
      </g>
      <g>
      </g>
      <g>
      </g>
      <g>
      </g>
      <g>
      </g>
      <g>
      </g>
      <g>
      </g>
     </g>
    </g>
   </g>
   <polygon class="fil1 str0" points="210.324,234.195 215,236.867 215,263.812 210.324,266.484 203.261,262.448 196.197,258.412 196.197,250.339 196.197,242.267 203.261,238.231 "/>
   <g>
   </g>
   <g style="clip-path:url(#id15)">
    <g>
     <g>
      <g>
       <g>
        <path class="fil0" d="M206.052 152.434l-6.6012 -3.6 0 -1.994 6.6012 -3.5797 0 2.3421 -4.5998 2.2096 4.5998 2.293c0,0 0,2.329 0,2.329z"/>
        <polygon class="fil0" points="207.18,153.694 211.557,141.999 212.94,141.999 208.553,153.694 "/>
        <polygon class="fil0" points="214.422,152.434 214.422,150.105 219.02,147.83 214.422,145.573 214.422,143.259 221.023,146.843 221.023,148.825 "/>
       </g>
       <g>
       </g>
       <g>
       </g>
       <g>
       </g>
       <g>
       </g>
       <g>
       </g>
       <g>
       </g>
       <g>
       </g>
       <g>
       </g>
       <g>
       </g>
       <g>
       </g>
       <g>
       </g>
       <g>
       </g>
       <g>
       </g>
       <g>
       </g>
       <g>
       </g>
      </g>
      <g>
      </g>
      <g>
      </g>
      <g>
      </g>
      <g>
      </g>
      <g>
      </g>
      <g>
      </g>
      <g>
      </g>
      <g>
      </g>
      <g>
      </g>
      <g>
      </g>
      <g>
      </g>
      <g>
      </g>
      <g>
      </g>
      <g>
      </g>
      <g>
      </g>
     </g>
    </g>
   </g>
   <polygon class="fil1 str0" points="210.237,131.702 215,134.423 215,161.269 210.237,163.991 203.174,159.955 196.11,155.919 196.11,147.846 196.11,139.774 203.174,135.738 "/>
   <g>
   </g>
   <g style="clip-path:url(#id16)">
    <g>
     <g>
      <g>
       <g>
        <path class="fil0" d="M214.389 201.061c-0.269,0 -0.4512,0.018 -0.5465,0.0437l0 1.7249c0.1126,0.0254 0.2517,0.0349 0.4423,0.0349 0.7018,0 1.136,-0.3551 1.136,-0.9447 -0.0003,-0.5376 -0.3646,-0.8588 -1.0318,-0.8588z"/>
        <path class="fil0" d="M211.444 193.217c-0.7422,-0.7418 -1.9449,-0.7418 -2.6871,0l-8.4382 8.4386c-0.7422,0.7422 -0.7422,1.945 0,2.6874l8.4379 8.4376c0.7421,0.7421 1.9449,0.7421 2.6871,0l8.4382 -8.4382c0.3565,-0.3562 0.5566,-0.8399 0.5566,-1.3436 0,-0.5037 -0.2001,-0.987 -0.5566,-1.3439l-8.4379 -8.4379zm-4.4102 7.9657l-2.2448 0 0 1.3354 2.0976 0 0 1.0746 -2.0976 0 0 2.349 -1.3175 0 0 -5.8424 3.5623 0 0 1.0834zm5.0449 0.0262l-1.5953 0 0 4.7321 -1.3171 0 0 -4.7321 -1.5773 0 0 -1.1096 4.4897 0 0 1.1096zm4.1219 2.0538c-0.4512,0.4169 -1.1268,0.6156 -1.9067,0.6156 -0.1736,0 -0.3293,-0.0081 -0.4511,-0.0349l0 2.0976 -1.3083 0 0 -5.7633c0.4074,-0.0695 0.98,-0.1214 1.7856,-0.1214 0.8144,0 1.4039,0.1564 1.794,0.4765 0.3731,0.2867 0.6153,0.7714 0.6153,1.3439 -0.0004,0.5804 -0.1822,1.0658 -0.5288,1.386z"/>
        <path class="fil0" d="M220.022 190.081c-0.1848,-0.0133 -0.3548,-0.1079 -0.4633,-0.2585 -1.3562,-1.8808 -3.565,-3.0446 -5.917,-3.0446 -0.1703,0 -0.3405,0.0061 -0.5108,0.018 -0.153,0.0108 -0.3039,-0.035 -0.4257,-0.1283 -1.4239,-1.0952 -3.1593,-1.6888 -4.9777,-1.6888 -3.2492,0 -6.129,1.9042 -7.4407,4.7786 -0.0902,0.1977 -0.2768,0.3341 -0.4925,0.3612 -3.5921,0.4488 -6.3806,3.5216 -6.3806,7.2334 0,3.2892 2.1912,6.0744 5.1901,6.9787 -0.1812,-0.4155 -0.2782,-0.866 -0.2782,-1.3324 0,-0.599 0.1601,-1.1719 0.4539,-1.6756 -1.4732,-0.7171 -2.4935,-2.2248 -2.4935,-3.9707 0,-2.4361 1.9819,-4.4177 4.4181,-4.4177 0.1231,0 0.2439,0.0099 0.3643,0.02 0.7018,0.054 1.3374,-0.4012 1.5084,-1.082 0.5942,-2.3673 2.7122,-4.0208 5.1503,-4.0208 1.3931,0 2.7116,0.5379 3.7122,1.5148 0.3423,0.3338 0.8273,0.4752 1.2958,0.3779 0.2981,-0.0617 0.6027,-0.0933 0.9063,-0.0933 1.7051,0 3.2288,0.9586 3.975,2.5023 0.2619,0.5427 0.8358,0.8659 1.4355,0.8042 0.1493,-0.0153 0.2982,-0.0224 0.4434,-0.0224 2.4364,0 4.418,1.9819 4.418,4.4177 0,1.7459 -1.0203,3.2533 -2.4934,3.9707 0.2937,0.5033 0.4538,1.0762 0.4538,1.6749 0,0.4668 -0.0973,0.9175 -0.2785,1.3334 2.9992,-0.9043 5.1901,-3.6894 5.1901,-6.979 0.001,-3.8428 -2.988,-7.0017 -6.7633,-7.2717z"/>
       </g>
      </g>
      <g>
      </g>
      <g>
      </g>
      <g>
      </g>
      <g>
      </g>
      <g>
      </g>
      <g>
      </g>
      <g>
      </g>
      <g>
      </g>
      <g>
      </g>
      <g>
      </g>
      <g>
      </g>
      <g>
      </g>
      <g>
      </g>
      <g>
      </g>
      <g>
      </g>
     </g>
    </g>
   </g>
   <polygon class="fil1 str0" points="210.1,183.013 215,185.813 215,212.502 210.1,215.303 203.036,211.266 195.973,207.23 195.973,199.158 195.973,191.086 203.036,187.049 "/>
   <g>
   </g>
   <g style="clip-path:url(#id17)">
    <g>
     <g>
      <g>
       <g>
        <path class="fil0" d="M209.664 96.7597l-0.5732 0c-0.6306,0 -1.1464,0.5159 -1.1464,1.1464l0 0.8598 0 2.0062 0.5732 0 0 -1.7196 1.7196 0 0 1.7196 0.5732 0 0 -1.7196 0 -1.1464c0,-0.6305 -0.5159,-1.1464 -1.1464,-1.1464zm0.5732 1.7196l-1.7196 0 0 -0.5732c0,-0.3439 0.2293,-0.5732 0.5732,-0.5732l0.5732 0c0.3439,0 0.5732,0.2293 0.5732,0.5732l0 0.5732z"/>
        <path class="fil0" d="M206.798 99.6257c0,0.2866 -0.2293,0.5732 -0.5732,0.5732l-0.5732 0c-0.3439,0 -0.5732,-0.2293 -0.5732,-0.5732l0 -0.5732 -0.5732 0 0 0.5732c0,0.6305 0.5159,1.1464 1.1464,1.1464l0.5732 0c0.6305,0 1.1464,-0.5159 1.1464,-1.1464l0 -2.866 -0.5732 0 0 2.866z"/>
        <polygon class="fil0" points="212.816,99.7403 211.957,96.7597 211.383,96.7597 212.53,100.772 212.816,100.772 213.103,100.772 214.249,96.7597 213.676,96.7597 "/>
        <path class="fil0" d="M217.689 95.0401l-5.7319 0 0 -1.7196 -3.4392 -4.0124 -6.3052 0c-0.6305,0 -1.1464,0.5159 -1.1464,1.1464l0 13.1836c0,0.6305 0.5159,1.1464 1.1464,1.1464l8.598 0c0.6305,0 1.1464,-0.5159 1.1464,-1.1464l0 -1.1464 5.7319 0c0.9745,0 1.7196,-0.7452 1.7196,-1.7196l0 -4.0124c0,-0.9744 -0.7451,-1.7196 -1.7196,-1.7196zm-9.1711 -4.8722l2.694 3.1526 -2.1208 0c-0.2866,0 -0.5732,-0.2866 -0.5732,-0.5732l0 -2.5794zm2.866 13.4702c0,0.2866 -0.2293,0.5732 -0.5732,0.5732l-8.598 0c-0.2866,0 -0.5732,-0.2293 -0.5732,-0.5732l0 -13.1836c0,-0.2866 0.2293,-0.5732 0.5732,-0.5732l5.732 0 0 2.866c0,0.6305 0.5158,1.1464 1.1464,1.1464l2.2928 0 0 1.1464 -6.8784 0c-0.9745,0 -1.7196,0.7451 -1.7196,1.7196l0 4.0124c0,0.9744 0.7451,1.7196 1.7196,1.7196l6.8784 0 0 1.1464zm7.4515 -2.866c0,0.6305 -0.5158,1.1464 -1.1464,1.1464l-13.1835 0c-0.6305,0 -1.1464,-0.5159 -1.1464,-1.1464l0 -4.0124c0,-0.6305 0.5159,-1.1464 1.1464,-1.1464l13.1835 0c0.6306,0 1.1464,0.5159 1.1464,1.1464l0 4.0124z"/>
        <path class="fil0" d="M216.542 96.7597l-0.5732 0c-0.6306,0 -1.1464,0.5159 -1.1464,1.1464l0 0.8598 0 2.0062 0.5732 0 0 -1.7196 1.7196 0 0 1.7196 0.5731 0 0 -1.7196 0 -1.1464c0,-0.6305 -0.5158,-1.1464 -1.1463,-1.1464zm0.5732 1.7196l-1.7196 0 0 -0.5732c0,-0.3439 0.2292,-0.5732 0.5732,-0.5732l0.5732 0c0.3439,0 0.5732,0.2293 0.5732,0.5732l0 0.5732z"/>
       </g>
      </g>
      <g>
      </g>
      <g>
      </g>
      <g>
      </g>
      <g>
      </g>
      <g>
      </g>
      <g>
      </g>
      <g>
      </g>
      <g>
      </g>
      <g>
      </g>
      <g>
      </g>
      <g>
      </g>
      <g>
      </g>
      <g>
      </g>
      <g>
      </g>
      <g>
      </g>
     </g>
    </g>
   </g>
   <polygon class="fil1 str0" points="210.237,80.9017 215,83.6234 215,110.469 210.237,113.191 203.174,109.155 196.11,105.119 196.11,97.0463 196.11,88.974 203.174,84.9378 "/>
  </g>
 </g>
</svg>
