<?xml version="1.0" encoding="UTF-8"?>
<!DOCTYPE svg PUBLIC "-//W3C//DTD SVG 1.1//EN" "http://www.w3.org/Graphics/SVG/1.1/DTD/svg11.dtd">
<!-- Creator: CorelDRAW -->
<svg xmlns="http://www.w3.org/2000/svg" xml:space="preserve" width="210mm" height="297mm" style="shape-rendering:geometricPrecision; text-rendering:geometricPrecision; image-rendering:optimizeQuality; fill-rule:evenodd; clip-rule:evenodd"
viewBox="0 0 210 297">
 <defs>
  <style type="text/css">
   <![CDATA[
    .str0 {stroke:white;stroke-width:0.0762}
    .str1 {stroke:#0091CF;stroke-width:0.0762}
    .fil2 {fill:none}
    .fil3 {fill:white}
    .fil1 {fill:#0093CC}
    .fil0 {fill:white;fill-opacity:0.000000}
   ]]>
  </style>
    <clipPath id="id0">
     <path d="M106.575 219.383l7.0633 4.0361 7.0633 4.0361 0 8.0724 0 8.0722 -7.0633 4.0362 -7.0633 4.0362 -7.0632 -4.0362 -7.0632 -4.0362 0 -8.0722 0 -8.0724 7.0632 -4.0361 7.0632 -4.0361z"/>
    </clipPath>
    <clipPath id="id1">
     <path d="M106.575 219.383l7.0633 4.0361 7.0633 4.0361 0 8.0724 0 8.0722 -7.0633 4.0362 -7.0633 4.0362 -7.0632 -4.0362 -7.0632 -4.0362 0 -8.0722 0 -8.0724 7.0632 -4.0361 7.0632 -4.0361z"/>
    </clipPath>
    <clipPath id="id2">
     <path d="M75.9855 117.136l7.0633 4.0361 7.0633 4.0361 0 8.0724 0 8.0722 -7.0633 4.0362 -7.0633 4.0362 -7.0632 -4.0362 -7.0633 -4.0362 0 -8.0722 0 -8.0724 7.0633 -4.0361 7.0632 -4.0361z"/>
    </clipPath>
    <clipPath id="id3">
     <path d="M75.9855 117.136l7.0633 4.0361 7.0633 4.0361 0 8.0724 0 8.0722 -7.0633 4.0362 -7.0633 4.0362 -7.0632 -4.0362 -7.0633 -4.0362 0 -8.0722 0 -8.0724 7.0633 -4.0361 7.0632 -4.0361z"/>
    </clipPath>
    <clipPath id="id4">
     <path d="M121.274 142.591l7.0632 4.0361 7.0633 4.0362 0 8.0723 0 8.0723 -7.0633 4.0362 -7.0632 4.0361 -7.0633 -4.0361 -7.0632 -4.0362 0 -8.0723 0 -8.0723 7.0632 -4.0362 7.0633 -4.0361z"/>
    </clipPath>
    <clipPath id="id5">
     <path d="M121.274 142.591l7.0632 4.0361 7.0633 4.0362 0 8.0723 0 8.0723 -7.0633 4.0362 -7.0632 4.0361 -7.0633 -4.0361 -7.0632 -4.0362 0 -8.0723 0 -8.0723 7.0632 -4.0362 7.0633 -4.0361z"/>
    </clipPath>
    <clipPath id="id6">
     <path d="M90.9245 142.585l7.0632 4.0362 7.0632 4.0361 0 8.0723 0 8.0723 -7.0632 4.0362 -7.0632 4.0361 -7.0633 -4.0361 -7.0632 -4.0362 0 -8.0723 0 -8.0723 7.0632 -4.0361 7.0633 -4.0362z"/>
    </clipPath>
    <clipPath id="id7">
     <path d="M90.9245 142.585l7.0632 4.0362 7.0632 4.0361 0 8.0723 0 8.0723 -7.0632 4.0362 -7.0632 4.0361 -7.0633 -4.0361 -7.0632 -4.0362 0 -8.0723 0 -8.0723 7.0632 -4.0361 7.0633 -4.0362z"/>
    </clipPath>
    <clipPath id="id8">
     <path d="M105.949 116.689l7.0633 4.0361 7.0633 4.0362 0 8.0723 0 8.0723 -7.0633 4.0362 -7.0633 4.0361 -7.0632 -4.0361 -7.0632 -4.0362 0 -8.0723 0 -8.0723 7.0632 -4.0362 7.0632 -4.0361z"/>
    </clipPath>
    <clipPath id="id9">
     <path d="M105.949 116.689l7.0633 4.0361 7.0633 4.0362 0 8.0723 0 8.0723 -7.0633 4.0362 -7.0633 4.0361 -7.0632 -4.0361 -7.0632 -4.0362 0 -8.0723 0 -8.0723 7.0632 -4.0362 7.0632 -4.0361z"/>
    </clipPath>
    <clipPath id="id10">
     <path d="M106.147 168.209l7.0633 4.0361 7.0632 4.0362 0 8.0722 0 8.0723 -7.0632 4.0362 -7.0633 4.0361 -7.0632 -4.0361 -7.0632 -4.0362 0 -8.0723 0 -8.0722 7.0632 -4.0362 7.0632 -4.0361z"/>
    </clipPath>
    <clipPath id="id11">
     <path d="M106.147 168.209l7.0633 4.0361 7.0632 4.0362 0 8.0722 0 8.0723 -7.0632 4.0362 -7.0633 4.0361 -7.0632 -4.0361 -7.0632 -4.0362 0 -8.0723 0 -8.0722 7.0632 -4.0362 7.0632 -4.0361z"/>
    </clipPath>
    <clipPath id="id12">
     <path d="M61.2205 142.818l7.0633 4.0362 7.0632 4.0361 0 8.0723 0 8.0723 -7.0632 4.0362 -7.0633 4.0361 -7.0632 -4.0361 -7.0633 -4.0362 0 -8.0723 0 -8.0723 7.0633 -4.0361 7.0632 -4.0362z"/>
    </clipPath>
    <clipPath id="id13">
     <path d="M61.2205 142.818l7.0633 4.0362 7.0632 4.0361 0 8.0723 0 8.0723 -7.0632 4.0362 -7.0633 4.0361 -7.0632 -4.0361 -7.0633 -4.0362 0 -8.0723 0 -8.0723 7.0633 -4.0361 7.0632 -4.0362z"/>
    </clipPath>
    <clipPath id="id14">
     <path d="M76.1215 168.079l7.0633 4.0361 7.0633 4.0361 0 8.0723 0 8.0722 -7.0633 4.0363 -7.0633 4.0361 -7.0632 -4.0361 -7.0633 -4.0363 0 -8.0722 0 -8.0723 7.0633 -4.0361 7.0632 -4.0361z"/>
    </clipPath>
    <clipPath id="id15">
     <path d="M76.1215 168.079l7.0633 4.0361 7.0633 4.0361 0 8.0723 0 8.0722 -7.0633 4.0363 -7.0633 4.0361 -7.0632 -4.0361 -7.0633 -4.0363 0 -8.0722 0 -8.0723 7.0633 -4.0361 7.0632 -4.0361z"/>
    </clipPath>
    <clipPath id="id16">
     <path d="M90.8425 91.1833l7.0632 4.0361 7.0633 4.0361 0 8.0724 0 8.0722 -7.0633 4.0362 -7.0632 4.0362 -7.0632 -4.0362 -7.0633 -4.0362 0 -8.0722 0 -8.0724 7.0633 -4.0361 7.0632 -4.0361z"/>
    </clipPath>
    <clipPath id="id17">
     <path d="M90.8425 91.1833l7.0632 4.0361 7.0633 4.0361 0 8.0724 0 8.0722 -7.0633 4.0362 -7.0632 4.0362 -7.0632 -4.0362 -7.0633 -4.0362 0 -8.0722 0 -8.0724 7.0633 -4.0361 7.0632 -4.0361z"/>
    </clipPath>
    <clipPath id="id18">
     <path d="M91.3995 193.706l7.0632 4.0361 7.0633 4.0361 0 8.0724 0 8.0722 -7.0633 4.0362 -7.0632 4.0362 -7.0632 -4.0362 -7.0633 -4.0362 0 -8.0722 0 -8.0724 7.0633 -4.0361 7.0632 -4.0361z"/>
    </clipPath>
    <clipPath id="id19">
     <path d="M91.3995 193.706l7.0632 4.0361 7.0633 4.0361 0 8.0724 0 8.0722 -7.0633 4.0362 -7.0632 4.0362 -7.0632 -4.0362 -7.0633 -4.0362 0 -8.0722 0 -8.0724 7.0633 -4.0361 7.0632 -4.0361z"/>
    </clipPath>
    <clipPath id="id20">
     <path d="M105.949 65.8891l7.0633 4.0361 7.0633 4.0362 0 8.0723 0 8.0722 -7.0633 4.0362 -7.0633 4.0361 -7.0632 -4.0361 -7.0632 -4.0362 0 -8.0722 0 -8.0723 7.0632 -4.0362 7.0632 -4.0361z"/>
    </clipPath>
    <clipPath id="id21">
     <path d="M105.949 65.8891l7.0633 4.0361 7.0633 4.0362 0 8.0723 0 8.0722 -7.0633 4.0362 -7.0633 4.0361 -7.0632 -4.0361 -7.0632 -4.0362 0 -8.0722 0 -8.0723 7.0632 -4.0362 7.0632 -4.0361z"/>
    </clipPath>
    <clipPath id="id22">
     <path d="M121.401 193.567l7.0633 4.0361 7.0633 4.0362 0 8.0723 0 8.0723 -7.0633 4.0362 -7.0633 4.0361 -7.0632 -4.0361 -7.0633 -4.0362 0 -8.0723 0 -8.0723 7.0633 -4.0362 7.0632 -4.0361z"/>
    </clipPath>
    <clipPath id="id23">
     <path d="M121.401 193.567l7.0633 4.0361 7.0633 4.0362 0 8.0723 0 8.0723 -7.0633 4.0362 -7.0633 4.0361 -7.0632 -4.0361 -7.0633 -4.0362 0 -8.0723 0 -8.0723 7.0633 -4.0362 7.0632 -4.0361z"/>
    </clipPath>
    <clipPath id="id24">
     <path d="M121.189 39.9311l7.0633 4.0361 7.0633 4.0362 0 8.0723 0 8.0723 -7.0633 4.0362 -7.0633 4.0361 -7.0632 -4.0361 -7.0633 -4.0362 0 -8.0723 0 -8.0723 7.0633 -4.0362 7.0632 -4.0361z"/>
    </clipPath>
    <clipPath id="id25">
     <path d="M121.189 39.9311l7.0633 4.0361 7.0633 4.0362 0 8.0723 0 8.0723 -7.0633 4.0362 -7.0633 4.0361 -7.0632 -4.0361 -7.0633 -4.0362 0 -8.0723 0 -8.0723 7.0633 -4.0362 7.0632 -4.0361z"/>
    </clipPath>
    <clipPath id="id26">
     <path d="M121.217 91.1553l7.0632 4.0361 7.0633 4.0362 0 8.0723 0 8.0723 -7.0633 4.0362 -7.0632 4.0361 -7.0633 -4.0361 -7.0632 -4.0362 0 -8.0723 0 -8.0723 7.0632 -4.0362 7.0633 -4.0361z"/>
    </clipPath>
    <clipPath id="id27">
     <path d="M121.217 91.1553l7.0632 4.0361 7.0633 4.0362 0 8.0723 0 8.0723 -7.0633 4.0362 -7.0632 4.0361 -7.0633 -4.0361 -7.0632 -4.0362 0 -8.0723 0 -8.0723 7.0632 -4.0362 7.0633 -4.0361z"/>
    </clipPath>
    <clipPath id="id28">
     <path d="M136.516 219.182l4.676 2.672 0 26.9452 -4.676 2.672 -7.0632 -4.0361 -7.0633 -4.0362 0 -8.0723 0 -8.0723 7.0633 -4.0362 7.0632 -4.0361z"/>
    </clipPath>
    <clipPath id="id29">
     <path d="M136.516 219.182l4.676 2.672 0 26.9452 -4.676 2.672 -7.0632 -4.0361 -7.0633 -4.0362 0 -8.0723 0 -8.0723 7.0633 -4.0362 7.0632 -4.0361z"/>
    </clipPath>
    <clipPath id="id30">
     <path d="M136.429 116.689l4.7631 2.7217 0 26.8458 -4.7631 2.7217 -7.0632 -4.0361 -7.0633 -4.0362 0 -8.0723 0 -8.0723 7.0633 -4.0362 7.0632 -4.0361z"/>
    </clipPath>
    <clipPath id="id31">
     <path d="M136.429 116.689l4.7631 2.7217 0 26.8458 -4.7631 2.7217 -7.0632 -4.0361 -7.0633 -4.0362 0 -8.0723 0 -8.0723 7.0633 -4.0362 7.0632 -4.0361z"/>
    </clipPath>
    <clipPath id="id32">
     <path d="M136.292 168l4.9003 2.8001 0 26.6889 -4.9003 2.8001 -7.0632 -4.0361 -7.0633 -4.0362 0 -8.0723 0 -8.0722 7.0633 -4.0362 7.0632 -4.0361z"/>
    </clipPath>
    <clipPath id="id33">
     <path d="M136.292 168l4.9003 2.8001 0 26.6889 -4.9003 2.8001 -7.0632 -4.0361 -7.0633 -4.0362 0 -8.0723 0 -8.0722 7.0633 -4.0362 7.0632 -4.0361z"/>
    </clipPath>
    <clipPath id="id34">
     <path d="M136.429 65.8891l4.7631 2.7217 0 26.8457 -4.7631 2.7217 -7.0632 -4.0361 -7.0633 -4.0362 0 -8.0722 0 -8.0723 7.0633 -4.0362 7.0632 -4.0361z"/>
    </clipPath>
    <clipPath id="id35">
     <path d="M136.429 65.8891l4.7631 2.7217 0 26.8457 -4.7631 2.7217 -7.0632 -4.0361 -7.0633 -4.0362 0 -8.0722 0 -8.0723 7.0633 -4.0362 7.0632 -4.0361z"/>
    </clipPath>
 </defs>
 <g id="Layer_x0020_1">
  <metadata id="CorelCorpID_0Corel-Layer"/>
  <g id="_322318096">
   <g style="clip-path:url(#id0)">
    <polygon id="_320497104" class="fil0" points="92.449,219.383 120.702,219.383 120.702,251.672 92.449,251.672 "/>
   </g>
   <g style="clip-path:url(#id1)">
    <g>
     <polygon id="_176369008" class="fil1" points="103.219,238.661 105.759,238.661 105.759,239.248 103.219,239.248 103.219,239.731 111.21,239.731 111.21,239.248 108.247,239.248 108.247,238.661 111.543,238.661 111.543,237.323 103.219,237.323 "/>
     <polygon id="_176368768" class="fil1" points="101.006,230.608 113.12,230.608 113.12,235.451 114.158,235.451 114.158,229.57 99.9674,229.57 99.9674,232.813 101.006,232.813 "/>
     <path id="_176368600" class="fil1" d="M97.4654 241.268l5.4189 0 0 -8.1289 -5.4189 0 0 8.1289zm2.8238 -0.4083c-0.144,0 -0.2612,-0.1164 -0.2612,-0.2608 0,-0.144 0.1172,-0.2608 0.2612,-0.2608 0.1444,0 0.2608,0.1164 0.2608,0.2608 0,0.1444 -0.1164,0.2608 -0.2608,0.2608zm-2.0402 -6.9371l3.8525 0 -0.0004 5.9969 -3.8521 0 0 -5.9969z"/>
     <path id="_176369176" class="fil1" d="M111.91 235.763l0 5.7227 3.7749 0 0 -5.7227 -3.7749 0zm1.9641 0.2366c0.0452,0 0.0821,0.0377 0.0821,0.0825 0,0.0451 -0.0369,0.0828 -0.0821,0.0828 -0.0459,0 -0.0832,-0.0377 -0.0832,-0.0828 0,-0.0452 0.037,-0.0825 0.0832,-0.0825zm-0.4903 0.2746l0.9788 0 0 0.0791 -0.9788 0 0 -0.0791zm0.4575 4.9645c-0.1086,0 -0.1955,-0.0881 -0.1955,-0.1959 0,-0.1082 0.0869,-0.1955 0.1955,-0.1955 0.1078,0 0.1959,0.0873 0.1959,0.1955 0,0.1074 -0.0881,0.1959 -0.1959,0.1959zm1.2977 -0.6739c-0.8835,0.0048 -2.2447,0.0082 -2.6824,0.0045l0 -3.9346 2.6824 -0.0004 0 3.9305z"/>
    </g>
   </g>
   <polygon class="fil2" points="106.575,219.383 113.639,223.419 120.702,227.455 120.702,235.528 120.702,243.6 113.639,247.636 106.575,251.672 99.5122,247.636 92.449,243.6 92.449,235.528 92.449,227.455 99.5122,223.419 "/>
   <polygon id="_320497224" class="fil3 str0" points="106.575,219.383 113.638,223.419 120.702,227.456 120.702,235.528 120.702,243.6 113.638,247.636 106.575,251.672 99.5124,247.636 92.4495,243.6 92.4495,235.528 92.4495,227.456 99.5124,223.419 "/>
   <g style="clip-path:url(#id2)">
    <polygon id="_320499912" class="fil0" points="61.859,117.136 90.1121,117.136 90.1121,149.426 61.859,149.426 "/>
   </g>
   <g style="clip-path:url(#id3)">
    <g>
     <path id="_175583872" class="fil1" d="M82.0585 125.822l-12.1461 0c-0.291,0 -0.5093,0.2462 -0.4836,0.5371l1.1094 12.4322c0.0257,0.2907 0.2771,0.5949 0.5591,0.6735l4.3735 1.2148c0.2816,0.0781 0.7419,0.0786 1.024,0.0011l4.3788 -1.2132c0.2821,-0.0783 0.5335,-0.3798 0.5592,-0.671l1.1099 -12.4374c0.0256,-0.2909 -0.1917,-0.5371 -0.4842,-0.5371zm-2.1064 4.4877c-0.0002,0.0019 -0.0017,0.0034 -0.0036,0.0037 -0.0019,0.0003 -0.0037,-0.0007 -0.0045,-0.0025l-3.4265 1.4042c-0.0488,0.02 -0.0766,0.0717 -0.0665,0.1235 0.0102,0.0518 0.0556,0.0891 0.1084,0.0891l2.6652 0c0.1418,0 0.2768,0.0602 0.3716,0.1656 0.0948,0.1054 0.1404,0.2462 0.1253,0.3871l-0.4164 3.9066c-0.0204,0.1916 -0.1492,0.3544 -0.3311,0.4184l-2.8289 0.9954c-0.1065,0.0376 -0.2227,0.0378 -0.3295,0.0008l-2.8157 -0.9753c-0.183,-0.0634 -0.3128,-0.2267 -0.3334,-0.4192l-0.1888 -1.7692c-0.0099,-0.0929 0.0201,-0.1856 0.0826,-0.2551 0.0624,-0.0694 0.1514,-0.1091 0.2448,-0.1091l0.7836 0c0.1683,0 0.3095,0.127 0.3273,0.2944l0.1159 1.0874 1.9496 0.6777 1.9585 -0.6838 0.2396 -2.2554 -5.5377 0c-0.1678,0 -0.3088,-0.1263 -0.3272,-0.2932l-0.1055 -0.9559c-0.016,-0.1458 0.0662,-0.2846 0.2018,-0.3405l3.5441 -1.4612c0.0402,-0.0165 0.0631,-0.0592 0.0546,-0.1018 -0.0084,-0.0426 -0.0458,-0.0734 -0.0892,-0.0734l-3.7315 0c-0.1123,0 -0.2066,-0.0848 -0.2183,-0.1965l-0.1079 -1.0274c-0.0065,-0.0618 0.0135,-0.1235 0.0552,-0.1697 0.0416,-0.0462 0.1009,-0.0726 0.163,-0.0726l7.8078 -0.0001c0.0625,0 0.1221,0.0267 0.1637,0.0733 0.0417,0.0467 0.0614,0.1089 0.0544,0.171l-0.1548 1.3637z"/>
    </g>
   </g>
   <polygon class="fil2" points="75.9855,117.136 83.0488,121.172 90.1121,125.209 90.1121,133.281 90.1121,141.353 83.0488,145.389 75.9855,149.426 68.9223,145.389 61.859,141.353 61.859,133.281 61.859,125.209 68.9223,121.172 "/>
   <polygon id="_320499792" class="fil3 str0" points="75.9855,117.136 83.0495,121.172 90.1125,125.208 90.1125,133.28 90.1125,141.353 83.0495,145.389 75.9855,149.425 68.9225,145.389 61.8595,141.353 61.8595,133.28 61.8595,125.208 68.9225,121.172 "/>
   <g style="clip-path:url(#id4)">
    <polygon id="_320501184" class="fil0" points="107.148,142.591 135.401,142.591 135.401,174.881 107.148,174.881 "/>
   </g>
   <g style="clip-path:url(#id5)">
    <g>
     <path id="XMLID_8_" class="fil1" d="M121.176 152.454c-0.9222,0.6485 -1.9673,1.3837 -2.5273,2.5999 -0.9727,2.1217 1.9903,4.4362 2.1169,4.5337 0.0295,0.0227 0.0647,0.034 0.0998,0.034 0.0373,0 0.0747,-0.0128 0.105,-0.0382 0.0589,-0.0492 0.0756,-0.1327 0.0402,-0.2008 -0.0107,-0.0207 -1.0743,-2.0865 -1.0347,-3.5686 0.014,-0.5162 0.7363,-1.1017 1.5011,-1.7217 0.7005,-0.5678 1.4945,-1.2114 1.959,-1.9643 1.0199,-1.6572 -0.1136,-3.2868 -0.1252,-3.303 -0.045,-0.0632 -0.1281,-0.0862 -0.1992,-0.055 -0.071,0.0313 -0.1103,0.1081 -0.0941,0.184 0.0023,0.0107 0.2228,1.0883 -0.3906,2.1985 -0.2528,0.4588 -0.808,0.8493 -1.4509,1.3015z"/>
     <path id="XMLID_9_" class="fil1" d="M125.061 153.185c0.065,-0.049 0.0841,-0.1384 0.0447,-0.2097 -0.0394,-0.0713 -0.1252,-0.1028 -0.2013,-0.0739 -0.1567,0.0596 -3.8362,1.4778 -3.8362,3.1916 0,1.1812 0.5046,1.8053 0.8731,2.2611 0.1445,0.1787 0.2693,0.333 0.3104,0.4648 0.1158,0.3798 -0.1585,1.0662 -0.2737,1.2986 -0.0333,0.0669 -0.017,0.1478 0.0395,0.1966 0.0306,0.0264 0.0687,0.0398 0.1069,0.0398 0.0326,0 0.0652,-0.0097 0.0934,-0.0294 0.0633,-0.044 1.5462,-1.0924 1.2802,-2.3556 -0.099,-0.4801 -0.335,-0.831 -0.5432,-1.1405 -0.3225,-0.4796 -0.5555,-0.8261 -0.2021,-1.4659 0.4142,-0.7462 2.2894,-2.1633 2.3083,-2.1775z"/>
     <path id="XMLID_10_" class="fil1" d="M115.483 160.381c-0.0631,0.1888 -0.0333,0.3763 0.086,0.542 0.3989,0.5537 1.8118,0.8587 3.9785,0.8587 0.0001,0 0.0002,0 0.0003,0 0.2936,0 0.6035,-0.0058 0.921,-0.0171 3.4642,-0.1241 4.7491,-1.2033 4.8021,-1.2492 0.0578,-0.05 0.0733,-0.1333 0.0374,-0.2007 -0.036,-0.0673 -0.1134,-0.1011 -0.1875,-0.0808 -1.22,0.3332 -3.4982,0.4514 -5.0784,0.4514 -1.7682,0 -2.6687,-0.1273 -2.8892,-0.2214 0.1132,-0.1553 0.8109,-0.4327 1.6755,-0.6027 0.0826,-0.0162 0.1394,-0.0925 0.1312,-0.1764 -0.0082,-0.0838 -0.0786,-0.1477 -0.1628,-0.1477 -0.5068,0.0001 -3.0484,0.0407 -3.3141,0.8439z"/>
     <path id="XMLID_11_" class="fil1" d="M127.075 159.27c-0.7145,0 -1.3921,0.358 -1.4206,0.3733 -0.0661,0.0354 -0.0996,0.1112 -0.0815,0.1839 0.0182,0.0727 0.0836,0.1238 0.1585,0.1239 0.0152,0 1.5242,0.0123 1.6609,0.8745 0.121,0.7438 -1.4278,1.9489 -2.0348,2.3506 -0.0656,0.0433 -0.091,0.1272 -0.0606,0.1997 0.0258,0.0617 0.086,0.1003 0.1508,0.1003 0.0113,0 0.0227,-0.0012 0.0341,-0.0037 0.1441,-0.0307 3.5239,-0.7755 3.1666,-2.7434 -0.218,-1.206 -0.976,-1.4591 -1.5734,-1.4591z"/>
     <path id="XMLID_12_" class="fil1" d="M124.757 162.935c0.0117,-0.0631 -0.0145,-0.1272 -0.067,-0.164l-0.8104 -0.5676c-0.0395,-0.0277 -0.0894,-0.0364 -0.1358,-0.0241 -0.0085,0.0022 -0.8559,0.225 -2.0864,0.3616 -0.4883,0.0548 -1.0353,0.0837 -1.5818,0.0837 -1.2301,0 -2.0344,-0.1446 -2.1515,-0.2506 -0.0155,-0.0297 -0.0106,-0.0433 -0.0079,-0.0508 0.0213,-0.0592 0.1353,-0.1296 0.2089,-0.1574 0.0812,-0.03 0.125,-0.1182 0.0997,-0.2011 -0.0252,-0.0828 -0.1106,-0.1316 -0.1949,-0.1113 -0.8129,0.1961 -1.2104,0.4705 -1.1815,0.8153 0.0514,0.6114 1.4676,0.9252 2.6648,1.0082 0.1722,0.0118 0.3584,0.0178 0.5533,0.0178 0.0001,0 0.0002,0 0.0003,0 1.9908,0 4.543,-0.6246 4.5685,-0.6309 0.0623,-0.0154 0.1098,-0.0658 0.1217,-0.1288z"/>
     <path id="XMLID_13_" class="fil1" d="M118.648 164.247c0.0614,-0.04 0.0886,-0.1158 0.0668,-0.1857 -0.0217,-0.0699 -0.0871,-0.1157 -0.1605,-0.1148 -0.1089,0.0029 -1.066,0.0461 -1.133,0.6554 -0.0203,0.1821 0.0318,0.3485 0.155,0.4944 0.3437,0.4073 1.2713,0.6493 2.8354,0.7401 0.185,0.0111 0.373,0.0166 0.5587,0.0166 1.9885,0 3.3278,-0.6226 3.3838,-0.6491 0.0544,-0.0257 0.0903,-0.0791 0.0935,-0.1392 0.0032,-0.06 -0.0268,-0.1169 -0.0781,-0.1483l-1.0242 -0.6252c-0.0355,-0.0217 -0.078,-0.0289 -0.1186,-0.0206 -0.0065,0.0014 -0.6567,0.1363 -1.6381,0.2696 -0.1857,0.0252 -0.4182,0.038 -0.6911,0.038 -0.9803,0 -2.0707,-0.1602 -2.2798,-0.265 -0.003,-0.0197 0.0008,-0.0446 0.0302,-0.0662z"/>
     <path id="XMLID_14_" class="fil1" d="M120.043 167.733c4.5548,-0.0038 6.9994,-0.8138 7.4704,-1.3235 0.1667,-0.1804 0.1847,-0.3512 0.1705,-0.4627 -0.035,-0.2744 -0.2849,-0.4424 -0.3133,-0.4606 -0.0684,-0.044 -0.1601,-0.0325 -0.2134,0.029 -0.0532,0.0616 -0.0545,0.1515 -0.0011,0.2129 0.0287,0.037 0.0454,0.0988 -0.0387,0.1829 -0.1882,0.1758 -2.0871,0.7095 -5.2487,0.8699 -0.4331,0.0225 -0.8873,0.0339 -1.3501,0.034 -2.8307,0 -4.9024,-0.3877 -5.1744,-0.6137 0.1049,-0.1506 0.8377,-0.3912 1.617,-0.5273 0.0878,-0.0153 0.1471,-0.0981 0.1335,-0.1861 -0.0136,-0.0881 -0.0948,-0.1488 -0.1835,-0.1372 -0.022,0.003 -0.0965,0.0076 -0.183,0.0128 -1.2858,0.0785 -2.7717,0.2535 -2.8493,0.916 -0.0235,0.2019 0.0365,0.3851 0.1784,0.5447 0.3473,0.3901 1.3454,0.9089 5.9855,0.9089 0.0001,0 0.0001,0 0.0002,0z"/>
     <path id="XMLID_15_" class="fil1" d="M128.408 166.553c-0.0643,-0.0298 -0.1404,-0.0147 -0.1885,0.0371 -0.0067,0.0072 -0.6915,0.7233 -2.7505,1.1438 -0.7882,0.1579 -2.2679,0.238 -4.3978,0.238 -2.1339,0 -4.1643,-0.0839 -4.1846,-0.0848 -0.0848,-0.0041 -0.1574,0.0575 -0.1689,0.141 -0.0116,0.0835 0.0422,0.1621 0.1241,0.1816 0.0212,0.005 2.1491,0.5035 5.0587,0.5035 1.3954,0 2.7534,-0.1133 4.0361,-0.337 2.3918,-0.4193 2.5593,-1.6053 2.5652,-1.6555 0.0083,-0.0703 -0.0295,-0.1379 -0.0938,-0.1677z"/>
    </g>
   </g>
   <polygon class="fil2" points="121.274,142.591 128.338,146.627 135.401,150.664 135.401,158.736 135.401,166.808 128.338,170.844 121.274,174.881 114.211,170.844 107.148,166.808 107.148,158.736 107.148,150.664 114.211,146.627 "/>
   <polygon id="_320502312" class="fil3 str0" points="121.274,142.591 128.337,146.627 135.4,150.663 135.4,158.735 135.4,166.808 128.337,170.844 121.274,174.88 114.211,170.844 107.147,166.808 107.147,158.735 107.147,150.663 114.211,146.627 "/>
   <g style="clip-path:url(#id6)">
    <polygon id="_320507256" class="fil0" points="76.798,142.585 105.051,142.585 105.051,174.875 76.798,174.875 "/>
   </g>
   <g style="clip-path:url(#id7)">
    <g>
     <path id="_175225816" class="fil1" d="M91.0745 158.194c-0.3928,0.2439 -0.7861,0.3821 -1.2,0.469 -0.607,0.1276 -1.2159,0.1276 -1.8224,0.0112 -0.5239,-0.1004 -0.9537,-0.3832 -1.3005,-0.7773 -0.6872,-0.781 -1.1825,-1.6637 -1.329,-2.7104 -0.201,-1.4342 0.3019,-2.596 1.402,-3.5075 0.7893,-0.654 1.7268,-0.9709 2.7224,-1.1477 1.5621,-0.277 3.0394,0.0268 4.4691,0.6452 0.7341,0.3177 1.4435,0.6933 2.2017,0.9555 0.1673,0.058 0.3367,0.1103 0.5127,0.1352 0.3177,0.0444 0.5779,-0.0631 0.7872,-0.2993 0.2734,-0.3089 0.3696,-0.6806 0.3689,-1.0849 0.0768,-0.0044 0.0927,0.0557 0.1173,0.1009 0.2332,0.4285 0.1667,1.1257 -0.1498,1.4886 -0.3312,0.3802 -0.7717,0.4479 -1.2397,0.3937 -0.532,-0.0614 -1.0375,-0.2167 -1.5224,-0.4477 -0.9112,-0.4344 -1.8354,-0.8354 -2.8255,-1.0595 -1.2395,-0.2808 -2.4692,-0.2314 -3.6724,0.1683 -1.7518,0.5819 -2.6727,2.3225 -2.1957,4.109 0.2751,1.0309 0.8549,1.8429 1.7606,2.417 0.3918,0.2485 0.8237,0.3264 1.2794,0.3205 0.4612,-0.0066 0.9106,-0.0965 1.361,-0.1817 0.078,-0.015 0.154,-0.0344 0.2751,0.0019z"/>
     <path id="_175226176" class="fil1" d="M92.9165 166.982c-0.0841,-0.0282 -0.2411,0.0657 -0.266,-0.0516 -0.0245,-0.1146 0.1393,-0.1522 0.2346,-0.1922 0.581,-0.2416 1.1666,-0.4724 1.7477,-0.7136 0.3618,-0.1502 0.7149,-0.32 1.0397,-0.5416 0.1116,-0.0763 0.2143,-0.163 0.3048,-0.2639 0.1437,-0.1603 0.1783,-0.3293 0.0945,-0.5397 -0.442,-1.1068 -0.9356,-2.1939 -1.323,-3.3228 -0.3124,-0.9102 -0.5601,-1.8332 -0.626,-2.8012 -0.0776,-1.142 0.3178,-2.03 1.3033,-2.6412 0.4645,-0.2886 0.9633,-0.5036 1.4628,-0.7196 0.6174,-0.2669 1.2286,-0.5406 1.7702,-0.9543 0.8107,-0.6182 1.0768,-1.4473 1.0074,-2.4254 -0.0311,-0.4403 -0.1047,-0.8728 -0.2053,-1.3019 -0.0116,-0.0486 -0.0777,-0.1205 0.0099,-0.1581 0.0789,-0.0343 0.1209,0.0271 0.1549,0.0897 0.2639,0.4796 0.4702,0.9773 0.5346,1.5285 0.1246,1.0602 -0.3393,1.8687 -1.0729,2.5683 -0.4681,0.4464 -1.0428,0.7226 -1.6097,1.0107 -0.5119,0.2602 -1.0405,0.4905 -1.5228,0.8066 -0.5258,0.3445 -0.9615,0.764 -1.1062,1.4045 -0.1179,0.5209 -0.0222,1.0363 0.0827,1.5464 0.2308,1.1214 0.685,2.1661 1.1334,3.2115 0.232,0.5393 0.4791,1.0724 0.6635,1.63 0.2975,0.899 0.0492,1.5923 -0.7509,2.0972 -0.5755,0.3628 -1.2205,0.5215 -1.8821,0.627 -0.3871,0.0614 -0.778,0.0806 -1.1791,0.1067z"/>
     <path id="_175226152" class="fil1" d="M85.1725 156.198c-0.0143,0.0936 -0.0673,0.1647 -0.1181,0.2371 -0.8554,1.2207 -1.5883,2.5077 -2.141,3.8955 -0.3849,0.9671 -0.4773,1.9547 -0.2232,2.9652 0.3147,1.2499 1.147,2.0218 2.3203,2.4756 0.8508,0.3288 1.7376,0.487 2.6374,0.5929 1.2503,0.1479 2.5056,0.2466 3.7586,0.3682 0.1206,0.0116 0.2398,0.0449 0.3574,0.0767 0.0567,0.0152 0.1299,0.0384 0.1221,0.115 -0.0095,0.0888 -0.0917,0.0621 -0.1472,0.0667 -0.8112,0.066 -1.6235,0.1027 -2.4374,0.1148 -1.145,0.0171 -2.294,0.0251 -3.4233,-0.1652 -1.8347,-0.3091 -3.2567,-1.2224 -3.9468,-3.0246 -0.3699,-0.9671 -0.3234,-1.9745 -0.0255,-2.9566 0.447,-1.4733 1.1232,-2.8254 2.2241,-3.9326 0.2852,-0.2865 0.6065,-0.5329 0.9209,-0.7861 0.0306,-0.0241 0.0589,-0.0627 0.1217,-0.0426z"/>
     <path id="_175225936" class="fil1" d="M88.3025 162.905c1.2975,-0.2127 2.5925,-0.3293 3.897,-0.1732 0.6215,0.0747 0.7396,0.2019 0.754,0.8287 0.0234,0.992 -0.1152,1.9648 -0.3966,2.9165 -0.0469,0.1583 -0.1051,0.3142 -0.2034,0.4496 -0.0388,0.0534 -0.0819,0.1207 -0.1616,0.0927 -0.0703,-0.0245 -0.0608,-0.099 -0.0638,-0.1585 -0.0191,-0.424 0.0503,-0.842 0.0895,-1.2621 0.0561,-0.6017 0.1568,-1.2006 0.1013,-1.8101 -0.0177,-0.1927 -0.1061,-0.31 -0.2771,-0.3922 -0.5059,-0.2424 -1.0487,-0.3212 -1.5971,-0.3752 -0.6704,-0.0652 -1.3445,-0.059 -2.0162,-0.0991 -0.0423,-0.0025 -0.0838,-0.0112 -0.126,-0.0171z"/>
    </g>
   </g>
   <polygon class="fil2" points="90.9245,142.585 97.9877,146.622 105.051,150.658 105.051,158.73 105.051,166.802 97.9877,170.838 90.9245,174.875 83.8612,170.838 76.798,166.802 76.798,158.73 76.798,150.658 83.8612,146.622 "/>
   <polygon id="_320507280" class="fil3 str0" points="90.9245,142.585 97.9874,146.621 105.05,150.657 105.05,158.73 105.05,166.802 97.9874,170.838 90.9245,174.874 83.8615,170.838 76.7975,166.802 76.7975,158.73 76.7975,150.657 83.8615,146.621 "/>
   <g style="clip-path:url(#id8)">
    <polygon id="_320493984" class="fil0" points="91.823,116.689 120.076,116.689 120.076,148.979 91.823,148.979 "/>
   </g>
   <g style="clip-path:url(#id9)">
    <g>
     <path id="_321068976" class="fil1" d="M113.677 124.577l-15.455 0c-0.2918,0 -0.5283,0.2366 -0.5283,0.5283l0 15.455c0,0.2917 0.2365,0.5283 0.5283,0.5283l15.455 0c0.2918,0 0.5283,-0.2366 0.5283,-0.5283l0 -15.455c0,-0.2917 -0.2365,-0.5283 -0.5283,-0.5283zm-8.1601 10.211c-0.5009,0.4383 -1.1407,0.6797 -1.8016,0.6797 -1.4849,0 -2.693,-1.1833 -2.693,-2.6379 0,-1.4513 1.2081,-2.6319 2.693,-2.6319 0.6618,0 1.2994,0.2394 1.7955,0.6739 0.2046,0.1793 0.2251,0.4904 0.0458,0.695 -0.1792,0.2047 -0.4904,0.2253 -0.695,0.0459 -0.3163,-0.277 -0.7234,-0.4297 -1.1463,-0.4297 -0.9418,0 -1.7079,0.7387 -1.7079,1.6468 0,0.9113 0.7661,1.6528 1.7079,1.6528 0.4222,0 0.8316,-0.1549 1.1528,-0.436 0.2047,-0.1791 0.5159,-0.1584 0.6951,0.0464 0.1791,0.2047 0.1584,0.5159 -0.0463,0.695zm4.8672 -1.6377c0.272,0 0.4925,0.2205 0.4925,0.4925 0,0.272 -0.2205,0.4925 -0.4925,0.4925l-0.5742 0 -0.1785 0.7874c-0.0518,0.2286 -0.2549,0.3838 -0.4799,0.3838 -0.0361,0 -0.0727,-0.004 -0.1093,-0.0123 -0.2653,-0.0602 -0.4316,-0.3239 -0.3715,-0.5892l0.1291 -0.5696 -1.0672 0 -0.1784 0.7873c-0.0518,0.2287 -0.255,0.3838 -0.4799,0.3838 -0.0361,0 -0.0727,-0.0039 -0.1093,-0.0122 -0.2653,-0.0602 -0.4316,-0.324 -0.3715,-0.5892l0.1293 -0.5705c-0.2645,-0.0086 -0.4764,-0.2252 -0.4764,-0.4917 0,-0.2721 0.2205,-0.4926 0.4925,-0.4926l0.207 0 0.1439 -0.6349 -0.3509 0c-0.272,0 -0.4925,-0.2206 -0.4925,-0.4925 0,-0.2721 0.2205,-0.4926 0.4925,-0.4926l0.5742 0 0.1785 -0.7873c0.0601,-0.2653 0.324,-0.4316 0.5892,-0.3715 0.2653,0.0602 0.4316,0.3239 0.3715,0.5892l-0.1291 0.5696 1.0672 0 0.1784 -0.7873c0.0601,-0.2653 0.324,-0.4316 0.5893,-0.3715 0.2653,0.0602 0.4316,0.3239 0.3715,0.5892l-0.1294 0.5705c0.2645,0.0085 0.4765,0.2251 0.4765,0.4917 0,0.272 -0.2205,0.4925 -0.4926,0.4925l-0.2069 0 -0.144 0.635 0.3509 0 0 -0.0001z"/>
     <polygon id="_321068208" class="fil1" points="107.956,133.151 109.023,133.151 109.167,132.516 108.1,132.516 "/>
    </g>
   </g>
   <polygon class="fil2" points="105.949,116.689 113.013,120.725 120.076,124.762 120.076,132.834 120.076,140.906 113.013,144.942 105.949,148.979 98.8862,144.942 91.823,140.906 91.823,132.834 91.823,124.762 98.8862,120.725 "/>
   <polygon id="_321068064" class="fil3 str0" points="105.949,116.689 113.012,120.725 120.076,124.761 120.076,132.833 120.076,140.906 113.012,144.942 105.949,148.978 98.8864,144.942 91.8225,140.906 91.8225,132.833 91.8225,124.761 98.8864,120.725 "/>
   <g style="clip-path:url(#id10)">
    <polygon id="_321069576" class="fil0" points="92.021,168.209 120.274,168.209 120.274,200.498 92.021,200.498 "/>
   </g>
   <g style="clip-path:url(#id11)">
    <g>
     <path id="_321070776" class="fil1" d="M112.671 179.835c-0.0388,-1.1731 -0.0603,-2.7582 -0.0489,-3.9322 0.0004,-0.0523 -0.0079,-0.0984 -0.0198,-0.1419 0.0228,-0.2558 -0.1273,-0.5258 -0.4548,-0.5172 -4.1355,0.1085 -8.27,-0.0534 -12.4053,-0.0599 -0.344,-0.0007 -0.4947,0.3018 -0.4522,0.5672 -0.0137,0.0461 -0.0233,0.0956 -0.0227,0.1521 0.0624,4.9345 0.2321,12.0247 0.2374,16.9602 0,0.1108 0.0314,0.2005 0.0815,0.2718 0.0304,0.2091 0.1808,0.394 0.4528,0.3873 1.7874,-0.0444 3.5755,-0.073 5.3615,-0.1606 1.592,-0.0781 3.5757,0.0265 5.0973,-0.4929 0.5385,-0.184 1.0205,-0.4561 1.4337,-0.8499 0.7551,-0.7198 1.0128,-1.6861 1.0781,-2.7044 0.0624,-0.9782 -0.0528,-2.0041 -0.0758,-2.9054 -0.0588,-2.328 -0.1865,-4.2467 -0.2628,-6.5742zm-2.6166 8.8018c-0.2911,0.0016 -0.5724,0.2289 -0.4424,0.5779 0.2616,0.7022 0.3812,1.574 -0.0209,2.2456 -0.4864,0.8122 -1.3542,0.7901 -2.1794,0.8941 -0.5046,0.0637 -1.0411,0.0299 -1.5499,0.0443 -0.3959,0.0111 -5.4087,0.1333 -5.4087,0.1529 -0.0118,-4.7503 -0.1688,-11.6562 -0.2323,-16.4061 3.8181,0.0164 7.6351,0.1476 11.4531,0.066 -0.0146,3.9 0.3312,9.5378 0.3516,12.6201 -0.5921,-0.1869 -1.2043,-0.2658 -1.8364,-0.2234 -0.0498,0.0031 -0.0939,0.0144 -0.1347,0.0286zm0.3728 3.247c0.3836,-0.6533 0.4791,-1.455 0.2798,-2.3241 0.4618,0.018 0.9171,0.107 1.348,0.2898 0.0021,0.0052 0.0034,0.0109 0.0052,0.0163 -0.14,1.0298 -0.7912,1.6616 -1.633,2.018z"/>
     <path id="_321070896" class="fil1" d="M105.776 180.881c-0.9849,0.0353 -1.9697,0.0686 -2.9556,0.0712 -0.6201,0.0017 -0.6201,0.9632 0,0.9615 0.4164,-0.0011 0.8324,-0.0098 1.2487,-0.0198 0.1764,0.7065 0.2942,1.4264 0.2791,2.1565 -0.0055,0.2669 -0.0287,0.6253 -0.2094,0.8406 -0.2069,0.2465 -0.692,-0.0294 -0.8977,-0.1339 -0.5515,-0.2805 -1.0381,0.549 -0.4852,0.83 0.9984,0.5079 2.0708,0.4826 2.4439,-0.728 0.2852,-0.9256 0.0807,-2.0476 -0.1473,-2.9933 0.2413,-0.0079 0.4825,-0.0148 0.7237,-0.0235 0.6181,-0.0218 0.6202,-0.9835 -0.0002,-0.9613z"/>
     <path id="_321072192" class="fil1" d="M107.869 182.055c-0.0928,-0.1926 -0.05,-0.3364 -0.1151,-0.2911 0.2802,-0.1957 0.8515,-0.0653 1.1564,-0.0286 0.6147,0.074 0.6078,-0.8884 0,-0.9614 -0.6422,-0.0771 -1.6219,-0.165 -1.9863,0.5221 -0.2927,0.5519 0.0697,1.2066 0.3529,1.681 0.3489,0.5846 0.7852,1.1187 1.0809,1.7347 0.0242,0.0503 0.058,0.1752 0.0696,0.2203 -0.2989,0.1569 -0.9391,-0.0255 -1.241,-0.0813 -0.606,-0.1123 -0.865,0.8146 -0.2557,0.9271 0.6521,0.1207 1.7292,0.373 2.2456,-0.2181 0.442,-0.506 0.1093,-1.193 -0.1757,-1.6848 -0.3584,-0.618 -0.82,-1.1742 -1.1316,-1.8199z"/>
    </g>
   </g>
   <polygon class="fil2" points="106.147,168.209 113.211,172.245 120.274,176.282 120.274,184.354 120.274,192.426 113.211,196.462 106.147,200.498 99.0842,196.462 92.021,192.426 92.021,184.354 92.021,176.282 99.0842,172.245 "/>
   <polygon id="_321069744" class="fil3 str0" points="106.147,168.209 113.211,172.245 120.274,176.281 120.274,184.353 120.274,192.426 113.211,196.462 106.147,200.498 99.0844,196.462 92.0215,192.426 92.0215,184.353 92.0215,176.281 99.0844,172.245 "/>
   <g style="clip-path:url(#id12)">
    <polygon id="_321072120" class="fil0" points="47.094,142.818 75.347,142.818 75.347,175.108 47.094,175.108 "/>
   </g>
   <g style="clip-path:url(#id13)">
    <g>
     <path id="_321041472" class="fil1" d="M59.4055 163.097c-0.1697,0 -0.2847,0.0164 -0.3449,0.0328l0 1.0893c0.0711,0.0167 0.1587,0.0221 0.2792,0.0221 0.4435,0 0.7173,-0.2244 0.7173,-0.6024 -0.0002,-0.3391 -0.2357,-0.5418 -0.6516,-0.5418z"/>
     <path id="_321041832" class="fil1" d="M67.1975 154.671c-0.0009,-0.0757 -0.0249,-0.1504 -0.0768,-0.2093l-3.1785 -3.6308c-0.0006,-0.0009 -0.0016,-0.0013 -0.0025,-0.0022 -0.019,-0.0211 -0.0407,-0.0387 -0.0641,-0.054 -0.0069,-0.0046 -0.0139,-0.0086 -0.0212,-0.0126 -0.0205,-0.011 -0.0417,-0.02 -0.0637,-0.0267 -0.006,-0.0017 -0.0114,-0.0041 -0.0174,-0.0058 -0.0243,-0.0056 -0.0489,-0.0092 -0.0741,-0.0092l-7.8116 0c-0.3564,0 -0.6465,0.2901 -0.6465,0.6465l0 15.1919c0,0.3566 0.2901,0.6465 0.6465,0.6465l10.6666 0c0.3567,0 0.6465,-0.2899 0.6465,-0.6465l0 -11.8518c0.0001,-0.0121 -0.0019,-0.0241 -0.0032,-0.036zm-6.6531 9.8222c-0.2846,0.2681 -0.7063,0.3885 -1.1989,0.3885 -0.1096,0 -0.208,-0.0053 -0.2848,-0.0164l0 1.3195 -0.8265 0 0 -3.6408c0.2573,-0.0438 0.6187,-0.0767 1.1278,-0.0767 0.5146,0 0.8815,0.0986 1.1277,0.2956 0.2355,0.1862 0.3942,0.4929 0.3942,0.8541 0,0.3613 -0.1205,0.668 -0.3395,0.8762zm2.4477 0.1532l0 1.5384 -0.8321 0 0 -1.5111 -1.1661 -2.1786 0.9527 0 0.3777 0.8866c0.1148,0.2683 0.1917,0.4653 0.2847,0.7063l0.0111 0c0.082,-0.23 0.1696,-0.4435 0.2791,-0.7063l0.3722 -0.8866 0.9363 0 -1.2156 2.1513zm-7.1045 -2.9495l0 -10.33 7.4883 0 0 3.3076c0,0.1784 0.1446,0.3232 0.3233,0.3232l2.8551 0 0.0003 6.6992 -10.667 0 0 0z"/>
     <path id="_321042072" class="fil1" d="M61.7225 156.937c0.3848,-0.0102 0.6821,-0.3311 0.6884,-0.7166 0.0041,-0.2483 0.0007,-0.4971 0.0008,-0.7455 0.0002,-0.2487 0.0016,-0.4971 -0.0008,-0.7456 -0.0006,-0.0576 -0.0063,-0.1179 -0.0233,-0.1727 -0.1057,-0.3452 -0.3624,-0.5381 -0.6989,-0.5791 -0.4013,-0.049 -0.8098,-0.0598 -1.2143,-0.0526 -0.2212,0.004 -0.4462,0.063 -0.6605,0.127 -0.2975,0.0891 -0.4141,0.2605 -0.4255,0.5694 -0.0065,0.1762 0.0003,0.3528 -0.0101,0.5286 -0.0074,0.1277 0.0425,0.1602 0.1649,0.1582 0.4156,-0.0066 0.8315,0.0006 1.2472,-0.0034 0.0975,-0.0009 0.1216,0.0355 0.1216,0.1269 0,0.1256 -0.0854,0.106 -0.1588,0.1063 -0.6507,0.002 -1.3017,0.0126 -1.9522,0 -0.4966,-0.0094 -0.8598,0.33 -0.9594,0.7548 -0.0725,0.3095 -0.1275,0.6203 -0.0996,0.9373 0.029,0.333 0.0751,0.6653 0.2416,0.9639 0.129,0.2318 0.324,0.375 0.5949,0.3906 0.1531,0.0091 0.3072,-0.0014 0.4608,0.0042 0.0914,0.0032 0.1167,-0.036 0.1147,-0.1213 -0.0044,-0.1896 0.0017,-0.3796 -0.0021,-0.5692 -0.0037,-0.1835 0.053,-0.3472 0.1524,-0.4965 0.2167,-0.3253 0.5314,-0.4596 0.9133,-0.4594 0.502,-0.0002 1.0038,0.008 1.5049,-0.0053zm-1.6923 -1.9896c-0.1651,-0.0002 -0.303,-0.1342 -0.3055,-0.2972 -0.0028,-0.1667 0.1414,-0.3158 0.3055,-0.3158 0.1554,-0.0002 0.3032,0.1456 0.3072,0.3027 0.0043,0.1685 -0.1366,0.3104 -0.3072,0.3103z"/>
     <path id="_321042144" class="fil1" d="M64.1335 156.962c-0.0291,-0.3327 -0.0751,-0.6652 -0.2415,-0.964 -0.129,-0.2316 -0.3241,-0.3748 -0.595,-0.3905 -0.1531,-0.0088 -0.3074,0.0017 -0.4607,-0.004 -0.0916,-0.0032 -0.117,0.0361 -0.1147,0.1212 0.0041,0.1897 -0.0019,0.3799 0.0019,0.5692 0.0037,0.1834 -0.0531,0.3473 -0.1525,0.4968 -0.2165,0.3253 -0.5312,0.4594 -0.9132,0.4592 -0.5016,0 -1.0033,-0.0082 -1.5047,0.0051 -0.3846,0.0102 -0.682,0.3311 -0.6882,0.7164 -0.0041,0.2484 -0.0009,0.4971 -0.0011,0.7456 -0.0001,0.2485 -0.0015,0.4969 0.0008,0.7456 0.0006,0.0578 0.0065,0.1178 0.0233,0.1727 0.1058,0.3453 0.3626,0.5379 0.6992,0.5791 0.4013,0.0489 0.8095,0.0598 1.2142,0.0525 0.2211,-0.0041 0.4462,-0.0628 0.6606,-0.1269 0.2975,-0.089 0.4141,-0.2606 0.4253,-0.5694 0.0066,-0.1761 -0.0003,-0.3528 0.0099,-0.5284 0.0076,-0.1279 -0.0423,-0.1604 -0.1647,-0.1583 -0.4158,0.0064 -0.8315,-0.0005 -1.2472,0.0036 -0.0976,0.0008 -0.1217,-0.0357 -0.1217,-0.1269 0.0002,-0.1258 0.0855,-0.1062 0.1591,-0.1063 0.6507,-0.0019 1.3016,-0.0127 1.9522,-0.0003 0.4966,0.0096 0.8597,-0.3299 0.9593,-0.7545 0.0722,-0.3096 0.1272,-0.6205 0.0994,-0.9375zm-2.288 2.2826c0.1652,0 0.303,0.134 0.3055,0.297 0.0026,0.1669 -0.1414,0.3157 -0.3055,0.316 -0.1556,0 -0.3036,-0.1457 -0.3072,-0.3028 -0.0042,-0.1685 0.1365,-0.3105 0.3072,-0.3102z"/>
    </g>
   </g>
   <polygon class="fil2" points="61.2205,142.818 68.2838,146.855 75.347,150.891 75.347,158.963 75.347,167.035 68.2838,171.071 61.2205,175.108 54.1573,171.071 47.094,167.035 47.094,158.963 47.094,150.891 54.1573,146.855 "/>
   <polygon id="_321071592" class="fil3 str0" points="61.2205,142.818 68.2835,146.854 75.3465,150.89 75.3465,158.962 75.3465,167.035 68.2835,171.071 61.2205,175.107 54.1575,171.071 47.0935,167.035 47.0935,158.962 47.0935,150.89 54.1575,146.854 "/>
   <g style="clip-path:url(#id14)">
    <polygon id="_321042000" class="fil0" points="61.995,168.079 90.2481,168.079 90.2481,200.368 61.995,200.368 "/>
   </g>
   <g style="clip-path:url(#id15)">
    <g>
     <polygon id="_321045384" class="fil1" points="70.1955,183.617 70.8775,186.154 71.8805,186.154 73.1485,182.211 72.1175,182.211 71.3655,184.795 70.7055,182.211 69.6985,182.211 69.0175,184.795 68.2795,182.211 67.2655,182.211 68.5135,186.154 69.5285,186.154 "/>
     <polygon id="_321045048" class="fil1" points="76.6195,182.211 75.6135,182.211 74.9325,184.795 74.1905,182.211 73.1765,182.211 74.4265,186.154 75.4425,186.154 76.1105,183.617 76.7935,186.154 77.7955,186.154 79.0635,182.211 78.0345,182.211 77.2785,184.795 "/>
     <polygon id="_321044904" class="fil1" points="83.9455,182.211 83.1915,184.795 82.5325,182.211 81.5245,182.211 80.8435,184.795 80.1055,182.211 79.0895,182.211 80.3405,186.154 81.3555,186.154 82.0225,183.617 82.7035,186.154 83.7085,186.154 84.9775,182.211 "/>
     <path id="_321044952" class="fil1" d="M76.1205 176.628c-3.0503,0 -5.674,1.8029 -6.881,4.3962l13.7627 0c-1.2085,-2.5933 -3.8315,-4.3962 -6.8817,-4.3962z"/>
     <path id="_321044856" class="fil1" d="M76.1205 191.82c3.0509,0 5.6717,-1.8021 6.8809,-4.3963l-13.7604 0c1.207,2.5934 3.8293,4.3963 6.8795,4.3963z"/>
    </g>
   </g>
   <polygon class="fil2" points="76.1215,168.079 83.1848,172.115 90.2481,176.152 90.2481,184.224 90.2481,192.296 83.1848,196.332 76.1215,200.368 69.0583,196.332 61.995,192.296 61.995,184.224 61.995,176.152 69.0583,172.115 "/>
   <polygon id="_321042360" class="fil3 str0" points="76.1215,168.079 83.1845,172.116 90.2475,176.152 90.2475,184.224 90.2475,192.296 83.1845,196.333 76.1215,200.369 69.0585,196.333 61.9945,192.296 61.9945,184.224 61.9945,176.152 69.0585,172.116 "/>
   <g style="clip-path:url(#id16)">
    <polygon id="_321046848" class="fil0" points="76.716,91.1833 104.969,91.1833 104.969,123.473 76.716,123.473 "/>
   </g>
   <g style="clip-path:url(#id17)">
    <g>
     <path id="_321048072" class="fil1" d="M83.7915 99.3143l1.282 14.404 5.7497 1.6225 5.7895 -1.6225 1.2822 -14.404 -14.1034 0zm11.3187 4.6979l-6.7511 0 0.1502 1.813 6.4507 0 -0.5008 5.449 -3.5959 0.9915 0 0.0101 -0.0401 0 -3.6262 -1.0016 -0.2203 -2.7845 1.753 0 0.1302 1.4023 1.9632 0.5307 1.9733 -0.5307 0.2204 -2.2838 -6.1302 0 -0.4707 -5.3489 8.8547 0 -0.1604 1.7529z"/>
    </g>
   </g>
   <polygon class="fil2" points="90.8425,91.1833 97.9057,95.2194 104.969,99.2555 104.969,107.328 104.969,115.4 97.9057,119.436 90.8425,123.473 83.7793,119.436 76.716,115.4 76.716,107.328 76.716,99.2555 83.7793,95.2194 "/>
   <polygon id="_321046800" class="fil3 str0" points="90.8425,91.1833 97.9064,95.2193 104.969,99.2553 104.969,107.327 104.969,115.399 97.9064,119.436 90.8425,123.472 83.7795,119.436 76.7165,115.399 76.7165,107.327 76.7165,99.2553 83.7795,95.2193 "/>
   <g style="clip-path:url(#id18)">
    <polygon id="_321048192" class="fil0" points="77.273,193.706 105.526,193.706 105.526,225.995 77.273,225.995 "/>
   </g>
   <g style="clip-path:url(#id19)">
    <g>
     <path id="_321049416" class="fil1" d="M98.4634 206.688l-5.2041 -4.9232c-0.105,-0.1049 -0.281,-0.176 -0.4571,-0.176l-7.9773 0c-0.386,0 -0.7043,0.3149 -0.7043,0.7042l0 15.1149c0,0.386 0.3149,0.7043 0.7043,0.7043l13.1475 0c0.386,0 0.7043,-0.3149 0.7043,-0.7043l0 -10.2289c-0.0034,-0.1761 -0.0745,-0.3522 -0.2133,-0.491zm-1.1953 10.0529l-11.7762 0 0 -13.7808 7.0292 0 4.7437 4.5338 0 9.247 0.0033 0z"/>
     <path id="_321050136" class="fil1" d="M88.0145 209.823l-0.7178 0c-0.1964,0 -0.3521,0.1591 -0.3521,0.3521l0 3.535c0,0.1963 0.1591,0.3521 0.3521,0.3521 0.193,0 0.3522,-0.1591 0.3522,-0.3521l0 -1.412 0.3656 0c0.6806,0 1.2359,-0.5553 1.2359,-1.2358 0,-0.684 -0.5553,-1.2393 -1.2359,-1.2393zm0 1.7675l-0.3656 0 0 -1.0598 0.3656 0c0.2912,0 0.5283,0.237 0.5283,0.5282 0,0.2945 -0.2371,0.5316 -0.5283,0.5316z"/>
     <path id="_321050400" class="fil1" d="M94.6174 209.823l-0.7179 0c-0.1964,0 -0.352,0.1591 -0.352,0.3521l0 3.535c0,0.1963 0.159,0.3521 0.352,0.3521 0.1964,0 0.3522,-0.1591 0.3522,-0.3521l0 -1.412 0.3657 0c0.6805,0 1.2358,-0.5553 1.2358,-1.2358 0,-0.684 -0.5553,-1.2393 -1.2358,-1.2393zm0 1.7675l-0.3657 0 0 -1.0598 0.3657 0c0.2911,0 0.5282,0.237 0.5282,0.5282 0,0.2945 -0.2371,0.5316 -0.5282,0.5316z"/>
     <path id="_321051144" class="fil1" d="M92.4875 209.823c-0.1964,0 -0.3522,0.1591 -0.3522,0.3521l0 1.412 -1.5202 0 0 -1.412c0,-0.1964 -0.1592,-0.3521 -0.3522,-0.3521 -0.1964,0 -0.3521,0.1591 -0.3521,0.3521l0 3.535c0,0.1963 0.1591,0.3521 0.3521,0.3521 0.1964,0 0.3522,-0.1591 0.3522,-0.3521l0 -1.412 1.5202 0 0 1.412c0,0.1963 0.1592,0.3521 0.3522,0.3521 0.1964,0 0.3521,-0.1591 0.3521,-0.3521l0 -3.5316c0,-0.1964 -0.1591,-0.3555 -0.3521,-0.3555z"/>
    </g>
   </g>
   <polygon class="fil2" points="91.3995,193.706 98.4627,197.742 105.526,201.778 105.526,209.851 105.526,217.923 98.4627,221.959 91.3995,225.995 84.3363,221.959 77.273,217.923 77.273,209.851 77.273,201.778 84.3363,197.742 "/>
   <polygon id="_321048288" class="fil3 str0" points="91.3995,193.706 98.4624,197.742 105.525,201.778 105.525,209.85 105.525,217.922 98.4624,221.959 91.3995,225.995 84.3355,221.959 77.2725,217.922 77.2725,209.85 77.2725,201.778 84.3355,197.742 "/>
   <g style="clip-path:url(#id20)">
    <polygon id="_321051072" class="fil0" points="91.823,65.8891 120.076,65.8891 120.076,98.1782 91.823,98.1782 "/>
   </g>
   <g style="clip-path:url(#id21)">
    <g>
     <path id="_321052608" class="fil1" d="M113.235 78.3908c-0.6678,0 -1.2143,0.5465 -1.2143,1.2143l0 4.8572c0,0.6678 0.5465,1.2142 1.2143,1.2142 0.6679,0 1.2143,-0.5463 1.2143,-1.2142l0 -4.8572c0,-0.6678 -0.5464,-1.2143 -1.2143,-1.2143zm-14.5714 0c-0.6679,0 -1.2143,0.5465 -1.2143,1.2143l0 4.8572c0,0.6678 0.5464,1.2142 1.2143,1.2142 0.6679,0 1.2143,-0.5463 1.2143,-1.2142l0 -4.8572c0,-0.6678 -0.5465,-1.2143 -1.2143,-1.2143zm1.8214 7.8929c0,1.0058 0.8155,1.8213 1.8214,1.8213l0.6072 0 0 2.4286c0,0.6678 0.5464,1.2143 1.2143,1.2143 0.6678,0 1.2143,-0.5465 1.2143,-1.2143l0 -2.4286 1.2142 0 0 2.4286c0,0.6678 0.5465,1.2143 1.2143,1.2143 0.6679,0 1.2143,-0.5465 1.2143,-1.2143l0 -2.4286 0.6072 0c1.0059,0 1.8214,-0.8155 1.8214,-1.8213l0 -6.6786 -10.9286 0 0 6.6786zm7.7145 -12.2663l0.7685 -1.4762c0.0386,-0.0741 0.0094,-0.1662 -0.0646,-0.2048 -0.0739,-0.0385 -0.1662,-0.0094 -0.2047,0.0646l-0.7801 1.4986c-0.6109,-0.2362 -1.2749,-0.3659 -1.9693,-0.3659 -0.6943,0 -1.3583,0.1297 -1.9693,0.3659l-0.7801 -1.4986c-0.0386,-0.074 -0.1307,-0.1031 -0.2048,-0.0645 -0.074,0.0385 -0.1031,0.1306 -0.0645,0.2047l0.7684 1.4763c-1.7195,0.7782 -2.9644,2.4206 -3.1803,4.3734l10.861 0c-0.2158,-1.9528 -1.4606,-3.5952 -3.1802,-4.3735zm-4.6788 3.4324c-0.4862,0 -0.8803,-0.3942 -0.8803,-0.8804 0,-0.4862 0.3941,-0.8803 0.8803,-0.8803 0.4862,0 0.8804,0.3941 0.8804,0.8803 -0.0001,0.4862 -0.3942,0.8804 -0.8804,0.8804zm4.8572 0c-0.4862,0 -0.8804,-0.3942 -0.8804,-0.8804 0,-0.4862 0.3942,-0.8803 0.8804,-0.8803 0.4861,0 0.8803,0.3941 0.8803,0.8803 0,0.4862 -0.3942,0.8804 -0.8803,0.8804z"/>
    </g>
   </g>
   <polygon class="fil2" points="105.949,65.8891 113.013,69.9252 120.076,73.9614 120.076,82.0337 120.076,90.1059 113.013,94.1421 105.949,98.1782 98.8862,94.1421 91.823,90.1059 91.823,82.0337 91.823,73.9614 98.8862,69.9252 "/>
   <polygon id="_321051288" class="fil3 str0" points="105.949,65.8891 113.012,69.9252 120.076,73.9614 120.076,82.0337 120.076,90.1063 113.012,94.1423 105.949,98.1783 98.8864,94.1423 91.8225,90.1063 91.8225,82.0337 91.8225,73.9614 98.8864,69.9252 "/>
   <g style="clip-path:url(#id22)">
    <polygon id="_321052392" class="fil0" points="107.275,193.567 135.528,193.567 135.528,225.856 107.275,225.856 "/>
   </g>
   <g style="clip-path:url(#id23)">
    <g>
     <path id="_321054600" class="fil1" d="M116.159 212.543c0,2.8973 2.343,5.241 5.2417,5.241 2.8987,0 5.2417,-2.3437 5.2417,-5.241l0 -2.9955 -10.4834 0 0 2.9955zm8.3267 -8.7094l1.5734 -1.5734 -0.6149 -0.621 -1.7227 1.7302c-0.7037,-0.3532 -1.482,-0.5617 -2.3209,-0.5617 -0.8388,0 -1.6171,0.2085 -2.3134,0.5617l-1.7301 -1.7302 -0.6149 0.6209 1.5734 1.5735c-1.303,0.9525 -2.1567,2.4775 -2.1567,4.2164l0 0.7481 10.4834 -0.0001 0 -0.748c0,-1.7389 -0.8536,-3.2639 -2.1566,-4.2164zm-5.3312 3.4671c-0.4117,0 -0.7487,-0.3371 -0.7487,-0.7481 0,-0.413 0.337,-0.7493 0.7487,-0.7493 0.4117,0 0.7487,0.3363 0.7487,0.7493 0,0.411 -0.3377,0.7481 -0.7487,0.7481zm4.4923 0c-0.4117,0 -0.7487,-0.3371 -0.7487,-0.7481 0,-0.413 0.337,-0.7493 0.7487,-0.7493 0.4117,0 0.7487,0.3363 0.7487,0.7493 0.0007,0.411 -0.337,0.7481 -0.7487,0.7481z"/>
    </g>
   </g>
   <polygon class="fil2" points="121.401,193.567 128.465,197.603 135.528,201.64 135.528,209.712 135.528,217.784 128.465,221.82 121.401,225.856 114.338,221.82 107.275,217.784 107.275,209.712 107.275,201.64 114.338,197.603 "/>
   <polygon id="_321053160" class="fil3 str0" points="121.401,193.567 128.464,197.604 135.527,201.64 135.527,209.712 135.527,217.784 128.464,221.821 121.401,225.857 114.338,221.821 107.274,217.784 107.274,209.712 107.274,201.64 114.338,197.604 "/>
   <g style="clip-path:url(#id24)">
    <polygon id="_321054984" class="fil0" points="107.063,39.9311 135.316,39.9311 135.316,72.2203 107.063,72.2203 "/>
   </g>
   <g style="clip-path:url(#id25)">
    <g>
     <path id="_321056640" class="fil2 str1" d="M121.189 39.9311l7.063 4.0361 3.0274 1.7298m0 20.7574l-3.0274 1.7298 -7.063 4.0361 -7.063 -4.0361 -2.0183 -1.1532m0 -21.9106l2.0183 -1.1532 7.063 -4.0361"/>
     <path id="_321057240" class="fil1" d="M113.747 55.5792l-0.0054 -4.8417 5.9577 -0.809 0 5.6507 -5.9523 0zm6.9452 -5.795l7.9415 -1.1555 0 6.9505 -7.9415 0 0 -5.795zm7.9435 6.788l-0.002 6.9506 -7.9415 -1.1173 0 -5.8333 7.9435 0zm-8.9364 5.7068l-5.9528 -0.8159 -0.0003 -4.8909 5.9531 0 0 5.7068z"/>
    </g>
   </g>
   <polygon class="fil2" points="121.189,39.9311 128.253,43.9672 135.316,48.0034 135.316,56.0757 135.316,64.148 128.253,68.1842 121.189,72.2203 114.126,68.1842 107.063,64.148 107.063,56.0757 107.063,48.0034 114.126,43.9672 "/>
   <polygon id="_321054936" class="fil3 str0" points="121.189,39.9311 128.252,43.9672 135.316,48.0034 135.316,56.0757 135.316,64.148 128.252,68.1842 121.189,72.2203 114.126,68.1842 107.062,64.148 107.062,56.0757 107.062,48.0034 114.126,43.9672 "/>
   <polygon id="_321055584" class="fil3 str1" points="136.192,200.224 129.25,196.256 122.186,192.22 122.186,184.148 122.186,176.076 129.25,172.04 136.192,168.072 "/>
   <polygon id="_321057480" class="fil3 str1" points="136.192,98.0423 129.366,94.1423 122.302,90.1063 122.302,82.0337 122.302,73.9614 129.366,69.9252 136.192,66.0245 "/>
   <g style="clip-path:url(#id26)">
    <polygon id="_321057192" class="fil0" points="107.091,91.1553 135.344,91.1553 135.344,123.445 107.091,123.445 "/>
   </g>
   <g style="clip-path:url(#id27)">
    <g>
     <path id="_321058872" class="fil1" d="M121.217 115.76c4.326,0 7.8337,-0.9952 7.8337,-2.2206l0 -2.8004c-0.0514,0.0391 -0.1028,0.0761 -0.1583,0.1131 -0.4667,0.3125 -1.1103,0.586 -1.9121,0.8142 -1.5503,0.438 -3.5962,0.6806 -5.7633,0.6806 -2.1671,0 -4.213,-0.2426 -5.7633,-0.6806 -0.8018,-0.2282 -1.4454,-0.5017 -1.9121,-0.8142 -0.0555,-0.037 -0.1069,-0.074 -0.1583,-0.1131l0 2.8004c0,1.2254 3.5077,2.2206 7.8337,2.2206z"/>
     <path id="_321059472" class="fil1" d="M121.217 111.525c4.18,0 7.5952,-0.9273 7.8214,-2.0972 0.0082,-0.0411 0.0123,-0.0822 0.0123,-0.1233l0 -2.821c-0.0514,0.039 -0.1028,0.0761 -0.1583,0.1131 -0.3927,0.2631 -0.9129,0.4996 -1.5482,0.7032 -0.1172,0.037 -0.2385,0.074 -0.3639,0.111 -0.1255,0.0349 -0.253,0.0699 -0.3846,0.1028 -0.3042,0.076 -0.6229,0.1439 -0.956,0.2056 -1.3098,0.2426 -2.8333,0.3721 -4.4227,0.3721 -1.5894,0 -3.1129,-0.1295 -4.4247,-0.3721 -0.3331,-0.0617 -0.6518,-0.1316 -0.9561,-0.2056 -0.1316,-0.0329 -0.2591,-0.0658 -0.3845,-0.1028 -0.1254,-0.035 -0.2467,-0.072 -0.3639,-0.111 -0.6353,-0.2036 -1.1555,-0.4401 -1.5483,-0.7032 -0.0555,-0.037 -0.1069,-0.0741 -0.1583,-0.1131l0 2.821c0,0.0411 0.0041,0.0822 0.0123,0.1233 0.2283,1.1699 3.6435,2.0972 7.8235,2.0972z"/>
     <path id="_321059808" class="fil1" d="M116.792 106.88c0.4256,0.0823 0.88,0.1542 1.3591,0.2118 0.9417,0.1131 1.9779,0.1768 3.0656,0.1768 1.0877,0 2.124,-0.0637 3.0657,-0.1768 0.479,-0.0576 0.9334,-0.1295 1.359,-0.2118 1.9369,-0.3763 3.2487,-0.9931 3.3967,-1.6983 0.0103,-0.0453 0.0144,-0.0884 0.0144,-0.1337l0 -3.9888c0,-1.2254 -3.5077,-2.2206 -7.8338,-2.2206 -4.326,0 -7.8337,0.9952 -7.8337,2.2206l0 3.9888c0,0.0453 0.0041,0.0884 0.0144,0.1337 0.146,0.7052 1.4557,1.322 3.3926,1.6983zm5.2677 -1.7024c0,0.4647 -0.3783,0.843 -0.843,0.843 -0.4647,0 -0.843,-0.3783 -0.843,-0.843 0,-0.4647 0.3783,-0.843 0.843,-0.843 0.4647,0 0.843,0.3783 0.843,0.843z"/>
    </g>
   </g>
   <polygon class="fil2" points="121.217,91.1553 128.281,95.1914 135.344,99.2276 135.344,107.3 135.344,115.372 128.281,119.408 121.217,123.445 114.154,119.408 107.091,115.372 107.091,107.3 107.091,99.2276 114.154,95.1914 "/>
   <polygon id="_321057720" class="fil3 str0" points="121.217,91.1553 128.28,95.1913 135.343,99.2273 135.343,107.3 135.343,115.372 128.28,119.408 121.217,123.444 114.153,119.408 107.09,115.372 107.09,107.3 107.09,99.2273 114.153,95.1913 "/>
   <g style="clip-path:url(#id28)">
    <polygon id="_321060288" class="fil0" points="122.39,219.182 141.192,219.182 141.192,251.471 122.39,251.471 "/>
   </g>
   <g style="clip-path:url(#id29)">
    <g>
     <path id="_321061608" class="fil1" d="M141.192 228.557l0 2.0877c-0.1182,-0.7098 -0.4503,-1.3903 -0.9966,-1.9364l0.6026 -0.6026c0.1434,0.1434 0.2744,0.2942 0.394,0.4513zm0 3.2727l0 2.0889c-0.1196,0.1572 -0.2506,0.3085 -0.394,0.452l-0.6026 -0.604c0.5463,-0.5461 0.8784,-1.227 0.9966,-1.9369zm-1.4691 1.4643c1.1343,-1.1338 1.1343,-2.9797 -0.0005,-4.1131l-0.6025 0.6025c0.8025,0.8025 0.8025,2.107 0,2.9076l0.603 0.603zm-7.9295 -5.6282l-0.6035 -0.6026c-2.3017,2.3013 -2.3017,6.0477 0,8.349l0.6026 -0.6031c-1.9695,-1.969 -1.969,-5.1734 0.0009,-7.1433zm0.4385 6.7048l0.6031 -0.604c-1.3944,-1.3939 -1.3944,-3.663 0,-5.0583l-0.6031 -0.603c-1.7275,1.7266 -1.7275,4.5377 0,6.2653zm1.0756 -1.0766l0.6031 -0.603c-0.8016,-0.802 -0.8016,-2.1064 0.0004,-2.9076l-0.603 -0.6025c-1.1343,1.1348 -1.1343,2.9798 -0.0005,4.1131zm6.6745 8.5228l-2.0734 0 -1.2433 -8.9846c0.5792,-0.0746 1.0285,-0.5639 1.0285,-1.1637 0,-0.6505 -0.528,-1.1781 -1.1786,-1.1781 -0.651,0 -1.1786,0.528 -1.1786,1.1781 0,0.5998 0.4493,1.0891 1.0281,1.1637l-1.2429 8.9846 -2.0734 0c-0.4898,0 -0.8864,0.3975 -0.8864,0.8864 0,0.4898 0.3971,0.8864 0.8864,0.8864l6.9341 0c0.4898,0 0.8864,-0.398 0.8864,-0.8864 0,-0.4889 -0.3966,-0.8864 -0.8869,-0.8864z"/>
    </g>
   </g>
   <polygon class="fil2" points="136.516,219.182 141.192,221.854 141.192,248.799 136.516,251.471 129.453,247.435 122.39,243.399 122.39,235.327 122.39,227.255 129.453,223.218 "/>
   <polygon id="_321060696" class="fil3 str0" points="136.516,219.182 141.192,221.854 141.192,248.799 136.516,251.471 129.453,247.435 122.389,243.399 122.389,235.326 122.389,227.254 129.453,223.218 "/>
   <g style="clip-path:url(#id30)">
    <polygon id="_321061776" class="fil0" points="122.303,116.689 141.193,116.689 141.193,148.979 122.303,148.979 "/>
   </g>
   <g style="clip-path:url(#id31)">
    <g>
     <path id="_321063288" class="fil1" d="M132.244 137.421l-6.6012 -3.6 0 -1.994 6.6012 -3.5797 0 2.3421 -4.5998 2.2096 4.5998 2.293c0,0 0,2.329 0,2.329z"/>
     <polygon id="_321064440" class="fil1" points="133.372,138.681 137.749,126.986 139.132,126.986 134.745,138.681 "/>
     <path id="_321064008" class="fil1" d="M140.614 137.421l0 -2.329 0.5781 -0.286 0 2.2989 -0.5781 0.3161zm0.5781 -6.5772l-0.5781 -0.2838 0 -2.314 0.5781 0.3139 0 2.2839z"/>
    </g>
   </g>
   <polygon class="fil2" points="136.429,116.689 141.193,119.411 141.193,146.257 136.429,148.979 129.366,144.942 122.303,140.906 122.303,132.834 122.303,124.762 129.366,120.725 "/>
   <polygon id="_321062256" class="fil3 str0" points="136.429,116.689 141.192,119.41 141.192,146.256 136.429,148.978 129.366,144.942 122.302,140.906 122.302,132.833 122.302,124.761 129.366,120.725 "/>
   <g style="clip-path:url(#id32)">
    <polygon id="_321066120" class="fil0" points="122.166,168 141.193,168 141.193,200.289 122.166,200.289 "/>
   </g>
   <g style="clip-path:url(#id33)">
    <g>
     <path id="_321066960" class="fil1" d="M140.581 186.048c-0.269,0 -0.4512,0.018 -0.5465,0.0437l0 1.7249c0.1126,0.0254 0.2517,0.0349 0.4423,0.0349 0.2872,0 0.5293,-0.0597 0.7155,-0.1704l0 -1.5074c-0.1606,-0.0821 -0.3652,-0.1257 -0.6113,-0.1257z"/>
     <path id="_320496096" class="fil1" d="M137.636 178.204c-0.7422,-0.7418 -1.9449,-0.7418 -2.6871,0l-8.4382 8.4385c-0.7422,0.7422 -0.7422,1.945 0,2.6874l8.4379 8.4376c0.7421,0.7421 1.9449,0.7421 2.6871,0l3.5566 -3.5566 0 -5.4065c-0.2225,0.0406 -0.4591,0.0608 -0.7064,0.0608 -0.1736,0 -0.3293,-0.0081 -0.4511,-0.0349l0 2.0976 -1.3083 0 0 -5.7633c0.4074,-0.0695 0.98,-0.1214 1.7856,-0.1214 0.2474,0 0.4736,0.0141 0.6802,0.0432l0 -3.3262 -3.5563 -3.5562zm-4.4102 7.9656l-2.2448 0 0 1.3354 2.0976 0 0 1.0746 -2.0976 0 0 2.349 -1.3175 0 0 -5.8424 3.5623 0 0 1.0834zm5.0449 0.0262l-1.5953 0 0 4.7321 -1.3171 0 0 -4.7321 -1.5773 0 0 -1.1096 4.4897 0 0 1.1096z"/>
     <path id="_321066816" class="fil1" d="M141.193 171.896c-0.4439,-0.0857 -0.8984,-0.1304 -1.3586,-0.1304 -0.1703,0 -0.3405,0.0061 -0.5108,0.018 -0.153,0.0108 -0.3039,-0.035 -0.4257,-0.1283 -1.4239,-1.0952 -3.1593,-1.6888 -4.9777,-1.6888 -0.4165,0 -0.8269,0.0314 -1.2287,0.092l-3.462 1.9783 -1.6571 0.9469c-0.4329,0.5325 -0.8016,1.123 -1.0929,1.7614 -0.0902,0.1977 -0.2768,0.3341 -0.4925,0.3612 -1.4473,0.1808 -2.7642,0.7876 -3.8208,1.6906l0 7.3483 0 3.7341c0.7586,0.6479 1.6516,1.1439 2.6303,1.439 -0.1812,-0.4155 -0.2782,-0.866 -0.2782,-1.3324 0,-0.599 0.1601,-1.1719 0.4539,-1.6756 -1.4732,-0.7171 -2.4935,-2.2248 -2.4935,-3.9707 0,-2.4361 1.9819,-4.4176 4.4181,-4.4176 0.1231,0 0.2439,0.0099 0.3643,0.02 0.7018,0.054 1.3374,-0.4012 1.5084,-1.082 0.5942,-2.3673 2.7122,-4.0208 5.1503,-4.0208 1.3931,0 2.7116,0.5379 3.7122,1.5148 0.3423,0.3338 0.8273,0.4752 1.2958,0.3779 0.2981,-0.0617 0.6027,-0.0933 0.9063,-0.0933 0.4711,0 0.9281,0.0731 1.3589,0.2116l0 -2.9542z"/>
    </g>
   </g>
   <polygon class="fil2" points="136.292,168 141.193,170.8 141.193,197.489 136.292,200.289 129.229,196.253 122.166,192.217 122.166,184.145 122.166,176.073 129.229,172.036 "/>
   <polygon id="_321065736" class="fil3 str0" points="136.292,168 141.192,170.8 141.192,197.489 136.292,200.29 129.228,196.253 122.165,192.217 122.165,184.145 122.165,176.073 129.228,172.036 "/>
   <g style="clip-path:url(#id34)">
    <polygon id="_319552136" class="fil0" points="122.303,65.8891 141.193,65.8891 141.193,98.1782 122.303,98.1782 "/>
   </g>
   <g style="clip-path:url(#id35)">
    <g>
     <path id="_322296424" class="fil1" d="M135.856 81.7471l-0.5732 0c-0.6306,0 -1.1464,0.5159 -1.1464,1.1464l0 0.8598 0 2.0062 0.5732 0 0 -1.7196 1.7196 0 0 1.7196 0.5732 0 0 -1.7196 0 -1.1464c0,-0.6305 -0.5159,-1.1464 -1.1464,-1.1464zm0.5732 1.7196l-1.7196 0 0 -0.5732c0,-0.3439 0.2293,-0.5732 0.5732,-0.5732l0.5732 0c0.3439,0 0.5732,0.2293 0.5732,0.5732l0 0.5732z"/>
     <path id="_322296520" class="fil1" d="M132.99 84.6131c0,0.2866 -0.2293,0.5732 -0.5732,0.5732l-0.5732 0c-0.3439,0 -0.5732,-0.2293 -0.5732,-0.5732l0 -0.5732 -0.5732 0 0 0.5732c0,0.6305 0.5159,1.1464 1.1464,1.1464l0.5732 0c0.6305,0 1.1464,-0.5159 1.1464,-1.1464l0 -2.866 -0.5732 0 0 2.866z"/>
     <polygon id="_322296808" class="fil1" points="139.008,84.7277 138.149,81.7471 137.575,81.7471 138.722,85.7594 139.008,85.7594 139.295,85.7594 140.441,81.7471 139.868,81.7471 "/>
     <path id="_322297216" class="fil1" d="M141.193 80.0275l-3.043 0 0 -1.7196 -3.4392 -4.0124 -6.3052 0c-0.6305,0 -1.1464,0.5159 -1.1464,1.1464l0 13.1835c0,0.6305 0.5159,1.1464 1.1464,1.1464l8.598 0c0.6305,0 1.1464,-0.5159 1.1464,-1.1464l0 -1.1464 3.043 0 0 -0.5732 -10.4946 0c-0.6305,0 -1.1464,-0.5158 -1.1464,-1.1463l0 -4.0124c0,-0.6305 0.5159,-1.1464 1.1464,-1.1464l10.4946 0 0 -0.5732zm-6.4822 -4.8722l2.694 3.1526 -2.1208 0c-0.2866,0 -0.5732,-0.2866 -0.5732,-0.5732l0 -2.5794zm2.866 13.4701c0,0.2866 -0.2293,0.5732 -0.5732,0.5732l-8.598 0c-0.2866,0 -0.5732,-0.2293 -0.5732,-0.5732l0 -13.1835c0,-0.2866 0.2293,-0.5732 0.5732,-0.5732l5.732 0 0 2.866c0,0.6305 0.5158,1.1464 1.1464,1.1464l2.2928 0 0 1.1464 -6.8784 0c-0.9745,0 -1.7196,0.7451 -1.7196,1.7196l0 4.0124c0,0.9743 0.7451,1.7195 1.7196,1.7195l6.8784 0 0 1.1464z"/>
     <path id="_322297816" class="fil1" d="M141.193 82.2824c-0.1125,0.1772 -0.1777,0.3868 -0.1777,0.6111l0 0.8598 0 2.0062 0.1777 0 0 -3.4771z"/>
    </g>
   </g>
   <polygon class="fil2" points="136.429,65.8891 141.193,68.6108 141.193,95.4565 136.429,98.1782 129.366,94.1421 122.303,90.1059 122.303,82.0337 122.303,73.9614 129.366,69.9252 "/>
   <polygon id="_322295512" class="fil3 str0" points="136.429,65.8891 141.192,68.6108 141.192,95.4563 136.429,98.1783 129.366,94.1423 122.302,90.1063 122.302,82.0337 122.302,73.9614 129.366,69.9252 "/>
  </g>
 </g>
</svg>
