<?xml version="1.0" encoding="UTF-8"?>
<!DOCTYPE svg PUBLIC "-//W3C//DTD SVG 1.1//EN" "http://www.w3.org/Graphics/SVG/1.1/DTD/svg11.dtd">
<!-- Creator: CorelDRAW -->
<svg xmlns="http://www.w3.org/2000/svg" xml:space="preserve" width="67mm" height="15mm" style="shape-rendering:geometricPrecision; text-rendering:geometricPrecision; image-rendering:optimizeQuality; fill-rule:evenodd; clip-rule:evenodd"
viewBox="0 0 67 15">
 <defs>
  <style type="text/css">
   <![CDATA[
    .fil0 {fill:white}
    .fil1 {fill:white;fill-rule:nonzero}
   ]]>
  </style>
 </defs>
 <g id="Layer_x0020_1">
  <metadata id="CorelCorpID_0Corel-Layer"/>
  <g id="_268757880">
   <rect id="_268750488" class="fil0" x="3.4754" y="13.6278" width="66.0655" height="0.5"/>
   <path id="_268750056" class="fil1" d="M4.5649 7.4763l1.4852 -0.0929c0.0317,0.2411 0.0976,0.4245 0.1964,0.5515 0.1599,0.2046 0.3904,0.3058 0.6891,0.3058 0.2222,0 0.3939,-0.0518 0.515,-0.1564 0.12,-0.1047 0.18,-0.2258 0.18,-0.3634 0,-0.1305 -0.0565,-0.2481 -0.1717,-0.3516 -0.1153,-0.1035 -0.381,-0.2011 -0.7997,-0.2928 -0.6844,-0.1541 -1.1724,-0.3575 -1.464,-0.6127 -0.294,-0.2552 -0.441,-0.5797 -0.441,-0.9748 0,-0.2599 0.0753,-0.5057 0.2258,-0.7362 0.1505,-0.2304 0.3763,-0.4115 0.6785,-0.5444 0.3022,-0.1317 0.7162,-0.1976 1.2418,-0.1976 0.6456,0 1.1383,0.12 1.477,0.3599 0.3386,0.2398 0.5397,0.622 0.6044,1.1453l-1.4711 0.0859c-0.0388,-0.227 -0.1211,-0.3928 -0.2469,-0.4963 -0.1247,-0.1023 -0.2975,-0.154 -0.5174,-0.154 -0.1823,0 -0.3187,0.0376 -0.4105,0.1152 -0.0917,0.0764 -0.1375,0.1705 -0.1375,0.2811 0,0.0799 0.0376,0.1517 0.1129,0.2163 0.074,0.0671 0.2481,0.1282 0.5244,0.1858 0.6821,0.147 1.1701,0.2964 1.4652,0.4469 0.2952,0.1505 0.5104,0.3363 0.6444,0.5597 0.1341,0.2223 0.2023,0.4716 0.2023,0.7479 0,0.3234 -0.0905,0.6221 -0.2693,0.8949 -0.1787,0.274 -0.4292,0.481 -0.7514,0.6221 -0.321,0.1411 -0.7267,0.2116 -1.2159,0.2116 -0.8585,0 -1.4535,-0.1646 -1.7839,-0.4962 -0.3316,-0.3304 -0.5186,-0.7502 -0.5621,-1.2606z"/>
   <path id="_268750056" class="fil1" d="M9.7355 6.6249c0,-0.8243 0.2304,-1.4664 0.6891,-1.925 0.4597,-0.4598 1.0994,-0.6891 1.9191,-0.6891 0.8408,0 1.4887,0.2258 1.9438,0.6774 0.4539,0.4503 0.682,1.083 0.682,1.8956 0,0.5903 -0.0999,1.0748 -0.2987,1.4522 -0.1987,0.3775 -0.4856,0.6715 -0.8607,0.882 -0.3763,0.2105 -0.8432,0.3151 -1.4041,0.3151 -0.5692,0 -1.0407,-0.0905 -1.4146,-0.2716 -0.3728,-0.1823 -0.675,-0.4692 -0.9079,-0.862 -0.2316,-0.3927 -0.348,-0.8843 -0.348,-1.4746zm1.5616 0.0071c0,0.5103 0.0941,0.876 0.2834,1.0995 0.1893,0.2222 0.448,0.3339 0.7738,0.3339 0.3351,0 0.595,-0.1093 0.7784,-0.3269 0.1835,-0.2187 0.2764,-0.6103 0.2764,-1.1747 0,-0.4763 -0.0965,-0.8232 -0.2881,-1.0431 -0.1917,-0.2187 -0.4516,-0.3281 -0.7809,-0.3281 -0.3139,0 -0.5668,0.1106 -0.7573,0.334 -0.1905,0.2223 -0.2857,0.5915 -0.2857,1.1054z"/>
   <path id="_268750056" class="fil1" d="M19.1723 7.0835l1.3676 0.414c-0.0917,0.3833 -0.2363,0.7032 -0.4339,0.9607 -0.1976,0.2575 -0.4433,0.4516 -0.7361,0.5821 -0.2928,0.1317 -0.6656,0.1964 -1.1172,0.1964 -0.5491,0 -0.9983,-0.08 -1.3452,-0.2387 -0.3481,-0.16 -0.6492,-0.441 -0.902,-0.8432 -0.2516,-0.4022 -0.3786,-0.916 -0.3786,-1.5428 0,-0.8361 0.2222,-1.4793 0.6667,-1.9274 0.4445,-0.4492 1.0736,-0.6738 1.8862,-0.6738 0.6362,0 1.136,0.1282 1.5005,0.3857 0.3645,0.2576 0.635,0.6527 0.8114,1.1854l-1.3782 0.3069c-0.0482,-0.1541 -0.0988,-0.2669 -0.1517,-0.3387 -0.087,-0.1187 -0.194,-0.2105 -0.3198,-0.2751 -0.127,-0.0647 -0.2682,-0.0965 -0.4246,-0.0965 -0.3527,0 -0.6244,0.1423 -0.8125,0.4269 -0.1423,0.2117 -0.214,0.5433 -0.214,0.996 0,0.5609 0.0858,0.9443 0.2551,1.1524 0.1705,0.2082 0.4093,0.3116 0.7162,0.3116 0.2987,0 0.5244,-0.0834 0.6773,-0.2516 0.1529,-0.167 0.2634,-0.4104 0.3328,-0.7303z"/>
   <polygon id="_268750056" class="fil1" points="21.3596,4.0967 22.9236,4.0967 22.9236,9.1473 21.3596,9.1473 "/>
   <path id="_268750056" class="fil1" d="M27.151 8.3136l-1.778 0 -0.2446 0.8337 -1.5945 0 1.8979 -5.0506 1.7016 0 1.8991 5.0506 -1.6334 0 -0.2481 -0.8337zm-0.3269 -1.0925l-0.5586 -1.8156 -0.555 1.8156 1.1136 0z"/>
   <polygon id="_268750056" class="fil1" points="29.5311,4.0967 31.0928,4.0967 31.0928,7.9032 33.5281,7.9032 33.5281,9.1473 29.5311,9.1473 "/>
  </g>
 </g>
</svg>
